%TF.GenerationSoftware,KiCad,Pcbnew,(6.0.1-0)*%
%TF.CreationDate,2022-04-10T14:57:14-07:00*%
%TF.ProjectId,CocktailMachine,436f636b-7461-4696-9c4d-616368696e65,rev?*%
%TF.SameCoordinates,Original*%
%TF.FileFunction,Paste,Top*%
%TF.FilePolarity,Positive*%
%FSLAX46Y46*%
G04 Gerber Fmt 4.6, Leading zero omitted, Abs format (unit mm)*
G04 Created by KiCad (PCBNEW (6.0.1-0)) date 2022-04-10 14:57:14*
%MOMM*%
%LPD*%
G01*
G04 APERTURE LIST*
G04 Aperture macros list*
%AMRoundRect*
0 Rectangle with rounded corners*
0 $1 Rounding radius*
0 $2 $3 $4 $5 $6 $7 $8 $9 X,Y pos of 4 corners*
0 Add a 4 corners polygon primitive as box body*
4,1,4,$2,$3,$4,$5,$6,$7,$8,$9,$2,$3,0*
0 Add four circle primitives for the rounded corners*
1,1,$1+$1,$2,$3*
1,1,$1+$1,$4,$5*
1,1,$1+$1,$6,$7*
1,1,$1+$1,$8,$9*
0 Add four rect primitives between the rounded corners*
20,1,$1+$1,$2,$3,$4,$5,0*
20,1,$1+$1,$4,$5,$6,$7,0*
20,1,$1+$1,$6,$7,$8,$9,0*
20,1,$1+$1,$8,$9,$2,$3,0*%
G04 Aperture macros list end*
%ADD10RoundRect,0.225000X-0.225000X-0.250000X0.225000X-0.250000X0.225000X0.250000X-0.225000X0.250000X0*%
%ADD11RoundRect,0.225000X0.225000X0.250000X-0.225000X0.250000X-0.225000X-0.250000X0.225000X-0.250000X0*%
%ADD12RoundRect,0.225000X-0.250000X0.225000X-0.250000X-0.225000X0.250000X-0.225000X0.250000X0.225000X0*%
%ADD13RoundRect,0.225000X0.250000X-0.225000X0.250000X0.225000X-0.250000X0.225000X-0.250000X-0.225000X0*%
%ADD14RoundRect,0.218750X-0.256250X0.218750X-0.256250X-0.218750X0.256250X-0.218750X0.256250X0.218750X0*%
%ADD15RoundRect,0.218750X0.256250X-0.218750X0.256250X0.218750X-0.256250X0.218750X-0.256250X-0.218750X0*%
%ADD16RoundRect,0.218750X-0.218750X-0.256250X0.218750X-0.256250X0.218750X0.256250X-0.218750X0.256250X0*%
%ADD17RoundRect,0.200000X0.200000X0.275000X-0.200000X0.275000X-0.200000X-0.275000X0.200000X-0.275000X0*%
%ADD18RoundRect,0.200000X0.275000X-0.200000X0.275000X0.200000X-0.275000X0.200000X-0.275000X-0.200000X0*%
%ADD19RoundRect,0.200000X-0.200000X-0.275000X0.200000X-0.275000X0.200000X0.275000X-0.200000X0.275000X0*%
%ADD20RoundRect,0.200000X-0.275000X0.200000X-0.275000X-0.200000X0.275000X-0.200000X0.275000X0.200000X0*%
%ADD21R,1.400000X0.350000*%
%ADD22R,1.450000X0.450000*%
%ADD23R,1.460500X0.533400*%
%ADD24R,2.000000X0.900000*%
%ADD25R,0.900000X2.000000*%
%ADD26R,5.000000X5.000000*%
G04 APERTURE END LIST*
D10*
%TO.C,C4*%
X91831000Y-91758000D03*
X93381000Y-91758000D03*
%TD*%
D11*
%TO.C,C5*%
X138189000Y-91440000D03*
X136639000Y-91440000D03*
%TD*%
D10*
%TO.C,C6*%
X104381000Y-92690000D03*
X105931000Y-92690000D03*
%TD*%
D11*
%TO.C,C7*%
X145301000Y-91440000D03*
X143751000Y-91440000D03*
%TD*%
D10*
%TO.C,C8*%
X97975000Y-91750000D03*
X99525000Y-91750000D03*
%TD*%
D11*
%TO.C,C9*%
X87031000Y-91758000D03*
X85481000Y-91758000D03*
%TD*%
D10*
%TO.C,C10*%
X81036000Y-91758000D03*
X82586000Y-91758000D03*
%TD*%
%TO.C,C11*%
X101330000Y-99599471D03*
X102880000Y-99599471D03*
%TD*%
D11*
%TO.C,C12*%
X65880000Y-99099471D03*
X64330000Y-99099471D03*
%TD*%
D12*
%TO.C,C14*%
X62958000Y-71455000D03*
X62958000Y-73005000D03*
%TD*%
D10*
%TO.C,C15*%
X64376000Y-92202000D03*
X65926000Y-92202000D03*
%TD*%
D13*
%TO.C,C16*%
X70168000Y-69123000D03*
X70168000Y-67573000D03*
%TD*%
%TO.C,C18*%
X82338000Y-73450000D03*
X82338000Y-71900000D03*
%TD*%
D11*
%TO.C,C19*%
X75493000Y-72040000D03*
X73943000Y-72040000D03*
%TD*%
D13*
%TO.C,C20*%
X77358000Y-79605000D03*
X77358000Y-78055000D03*
%TD*%
D10*
%TO.C,C21*%
X70599000Y-75692000D03*
X72149000Y-75692000D03*
%TD*%
D14*
%TO.C,D3*%
X67158000Y-67442500D03*
X67158000Y-69017500D03*
%TD*%
D15*
%TO.C,F1*%
X64558000Y-69017500D03*
X64558000Y-67442500D03*
%TD*%
D16*
%TO.C,L1*%
X77000500Y-75968000D03*
X78575500Y-75968000D03*
%TD*%
D14*
%TO.C,L2*%
X80010000Y-77952500D03*
X80010000Y-79527500D03*
%TD*%
D16*
%TO.C,L3*%
X70770500Y-73830000D03*
X72345500Y-73830000D03*
%TD*%
D17*
%TO.C,R1*%
X109283000Y-92710000D03*
X107633000Y-92710000D03*
%TD*%
D18*
%TO.C,R2*%
X101600000Y-90170000D03*
X101600000Y-88520000D03*
%TD*%
D19*
%TO.C,R3*%
X125921000Y-67818000D03*
X127571000Y-67818000D03*
%TD*%
%TO.C,R4*%
X117793000Y-79248000D03*
X119443000Y-79248000D03*
%TD*%
D17*
%TO.C,R9*%
X141795000Y-91440000D03*
X140145000Y-91440000D03*
%TD*%
%TO.C,R10*%
X143573000Y-89408000D03*
X141923000Y-89408000D03*
%TD*%
D18*
%TO.C,R11*%
X111760000Y-87185000D03*
X111760000Y-85535000D03*
%TD*%
D17*
%TO.C,R13*%
X72199000Y-78227000D03*
X70549000Y-78227000D03*
%TD*%
D18*
%TO.C,R14*%
X76962000Y-90291000D03*
X76962000Y-88641000D03*
%TD*%
D20*
%TO.C,R15*%
X81703000Y-66135000D03*
X81703000Y-67785000D03*
%TD*%
D18*
%TO.C,R16*%
X79693000Y-74253000D03*
X79693000Y-72603000D03*
%TD*%
%TO.C,R17*%
X110236000Y-90741000D03*
X110236000Y-89091000D03*
%TD*%
D17*
%TO.C,R18*%
X107251000Y-86614000D03*
X105601000Y-86614000D03*
%TD*%
D21*
%TO.C,U2*%
X97942000Y-90088000D03*
X97942000Y-89438000D03*
X97942000Y-88788000D03*
X97942000Y-88138000D03*
X97942000Y-87488000D03*
X97942000Y-86838000D03*
X97942000Y-86188000D03*
X92192000Y-86188000D03*
X92192000Y-86838000D03*
X92192000Y-87488000D03*
X92192000Y-88138000D03*
X92192000Y-88788000D03*
X92192000Y-89438000D03*
X92192000Y-90088000D03*
%TD*%
D22*
%TO.C,U3*%
X107090000Y-90461000D03*
X107090000Y-89811000D03*
X107090000Y-89161000D03*
X107090000Y-88511000D03*
X104140000Y-88511000D03*
X104140000Y-89161000D03*
X104140000Y-89811000D03*
X104140000Y-90461000D03*
%TD*%
D23*
%TO.C,U6*%
X73793850Y-66125000D03*
X73793850Y-67395000D03*
X73793850Y-68665000D03*
X73793850Y-69935000D03*
X79242150Y-69935000D03*
X79242150Y-68665000D03*
X79242150Y-67395000D03*
X79242150Y-66125000D03*
%TD*%
D19*
%TO.C,R12*%
X145733000Y-110744000D03*
X147383000Y-110744000D03*
%TD*%
D21*
%TO.C,U4*%
X86441000Y-90088000D03*
X86441000Y-89438000D03*
X86441000Y-88788000D03*
X86441000Y-88138000D03*
X86441000Y-87488000D03*
X86441000Y-86838000D03*
X86441000Y-86188000D03*
X80691000Y-86188000D03*
X80691000Y-86838000D03*
X80691000Y-87488000D03*
X80691000Y-88138000D03*
X80691000Y-88788000D03*
X80691000Y-89438000D03*
X80691000Y-90088000D03*
%TD*%
D11*
%TO.C,C13*%
X69101000Y-92202000D03*
X67551000Y-92202000D03*
%TD*%
D24*
%TO.C,U1*%
X96196000Y-64589000D03*
X96196000Y-65859000D03*
X96196000Y-67129000D03*
X96196000Y-68399000D03*
X96196000Y-69669000D03*
X96196000Y-70939000D03*
X96196000Y-72209000D03*
X96196000Y-73479000D03*
X96196000Y-74749000D03*
X96196000Y-76019000D03*
X96196000Y-77289000D03*
X96196000Y-78559000D03*
X96196000Y-79829000D03*
X96196000Y-81099000D03*
D25*
X98981000Y-82099000D03*
X100251000Y-82099000D03*
X101521000Y-82099000D03*
X102791000Y-82099000D03*
X104061000Y-82099000D03*
X105331000Y-82099000D03*
X106601000Y-82099000D03*
X107871000Y-82099000D03*
X109141000Y-82099000D03*
X110411000Y-82099000D03*
D24*
X113196000Y-81099000D03*
X113196000Y-79829000D03*
X113196000Y-78559000D03*
X113196000Y-77289000D03*
X113196000Y-76019000D03*
X113196000Y-74749000D03*
X113196000Y-73479000D03*
X113196000Y-72209000D03*
X113196000Y-70939000D03*
X113196000Y-69669000D03*
X113196000Y-68399000D03*
X113196000Y-67129000D03*
X113196000Y-65859000D03*
X113196000Y-64589000D03*
D26*
X103696000Y-72089000D03*
%TD*%
M02*
