%TF.GenerationSoftware,KiCad,Pcbnew,(6.0.1-0)*%
%TF.CreationDate,2022-04-10T14:57:14-07:00*%
%TF.ProjectId,CocktailMachine,436f636b-7461-4696-9c4d-616368696e65,rev?*%
%TF.SameCoordinates,Original*%
%TF.FileFunction,Legend,Bot*%
%TF.FilePolarity,Positive*%
%FSLAX46Y46*%
G04 Gerber Fmt 4.6, Leading zero omitted, Abs format (unit mm)*
G04 Created by KiCad (PCBNEW (6.0.1-0)) date 2022-04-10 14:57:14*
%MOMM*%
%LPD*%
G01*
G04 APERTURE LIST*
%ADD10C,0.150000*%
%ADD11C,0.120000*%
G04 APERTURE END LIST*
D10*
%TO.C,C1*%
X114226666Y-66692142D02*
X114274285Y-66739761D01*
X114417142Y-66787380D01*
X114512380Y-66787380D01*
X114655238Y-66739761D01*
X114750476Y-66644523D01*
X114798095Y-66549285D01*
X114845714Y-66358809D01*
X114845714Y-66215952D01*
X114798095Y-66025476D01*
X114750476Y-65930238D01*
X114655238Y-65835000D01*
X114512380Y-65787380D01*
X114417142Y-65787380D01*
X114274285Y-65835000D01*
X114226666Y-65882619D01*
X113274285Y-66787380D02*
X113845714Y-66787380D01*
X113560000Y-66787380D02*
X113560000Y-65787380D01*
X113655238Y-65930238D01*
X113750476Y-66025476D01*
X113845714Y-66073095D01*
%TO.C,C17*%
X81075857Y-71922142D02*
X81123476Y-71969761D01*
X81266333Y-72017380D01*
X81361571Y-72017380D01*
X81504428Y-71969761D01*
X81599666Y-71874523D01*
X81647285Y-71779285D01*
X81694904Y-71588809D01*
X81694904Y-71445952D01*
X81647285Y-71255476D01*
X81599666Y-71160238D01*
X81504428Y-71065000D01*
X81361571Y-71017380D01*
X81266333Y-71017380D01*
X81123476Y-71065000D01*
X81075857Y-71112619D01*
X80123476Y-72017380D02*
X80694904Y-72017380D01*
X80409190Y-72017380D02*
X80409190Y-71017380D01*
X80504428Y-71160238D01*
X80599666Y-71255476D01*
X80694904Y-71303095D01*
X79790142Y-71017380D02*
X79123476Y-71017380D01*
X79552047Y-72017380D01*
%TO.C,R6*%
X99174380Y-81770333D02*
X98698190Y-81437000D01*
X99174380Y-81198904D02*
X98174380Y-81198904D01*
X98174380Y-81579857D01*
X98222000Y-81675095D01*
X98269619Y-81722714D01*
X98364857Y-81770333D01*
X98507714Y-81770333D01*
X98602952Y-81722714D01*
X98650571Y-81675095D01*
X98698190Y-81579857D01*
X98698190Y-81198904D01*
X98174380Y-82627476D02*
X98174380Y-82437000D01*
X98222000Y-82341761D01*
X98269619Y-82294142D01*
X98412476Y-82198904D01*
X98602952Y-82151285D01*
X98983904Y-82151285D01*
X99079142Y-82198904D01*
X99126761Y-82246523D01*
X99174380Y-82341761D01*
X99174380Y-82532238D01*
X99126761Y-82627476D01*
X99079142Y-82675095D01*
X98983904Y-82722714D01*
X98745809Y-82722714D01*
X98650571Y-82675095D01*
X98602952Y-82627476D01*
X98555333Y-82532238D01*
X98555333Y-82341761D01*
X98602952Y-82246523D01*
X98650571Y-82198904D01*
X98745809Y-82151285D01*
%TO.C,R8*%
X108242380Y-80833333D02*
X107766190Y-80500000D01*
X108242380Y-80261904D02*
X107242380Y-80261904D01*
X107242380Y-80642857D01*
X107290000Y-80738095D01*
X107337619Y-80785714D01*
X107432857Y-80833333D01*
X107575714Y-80833333D01*
X107670952Y-80785714D01*
X107718571Y-80738095D01*
X107766190Y-80642857D01*
X107766190Y-80261904D01*
X107670952Y-81404761D02*
X107623333Y-81309523D01*
X107575714Y-81261904D01*
X107480476Y-81214285D01*
X107432857Y-81214285D01*
X107337619Y-81261904D01*
X107290000Y-81309523D01*
X107242380Y-81404761D01*
X107242380Y-81595238D01*
X107290000Y-81690476D01*
X107337619Y-81738095D01*
X107432857Y-81785714D01*
X107480476Y-81785714D01*
X107575714Y-81738095D01*
X107623333Y-81690476D01*
X107670952Y-81595238D01*
X107670952Y-81404761D01*
X107718571Y-81309523D01*
X107766190Y-81261904D01*
X107861428Y-81214285D01*
X108051904Y-81214285D01*
X108147142Y-81261904D01*
X108194761Y-81309523D01*
X108242380Y-81404761D01*
X108242380Y-81595238D01*
X108194761Y-81690476D01*
X108147142Y-81738095D01*
X108051904Y-81785714D01*
X107861428Y-81785714D01*
X107766190Y-81738095D01*
X107718571Y-81690476D01*
X107670952Y-81595238D01*
D11*
%TO.C,C1*%
X114365580Y-63990000D02*
X114084420Y-63990000D01*
X114365580Y-65010000D02*
X114084420Y-65010000D01*
%TO.C,C3*%
X95390580Y-67820000D02*
X95109420Y-67820000D01*
X95390580Y-66800000D02*
X95109420Y-66800000D01*
%TO.C,C17*%
X80292420Y-70645000D02*
X80573580Y-70645000D01*
X80292420Y-69625000D02*
X80573580Y-69625000D01*
%TO.C,R6*%
X101022500Y-80937742D02*
X101022500Y-81412258D01*
X99977500Y-80937742D02*
X99977500Y-81412258D01*
%TO.C,R5*%
X95012742Y-80703500D02*
X95487258Y-80703500D01*
X95012742Y-81748500D02*
X95487258Y-81748500D01*
%TO.C,R8*%
X108697500Y-80762742D02*
X108697500Y-81237258D01*
X109742500Y-80762742D02*
X109742500Y-81237258D01*
%TO.C,R7*%
X95012742Y-80224500D02*
X95487258Y-80224500D01*
X95012742Y-79179500D02*
X95487258Y-79179500D01*
%TO.C,C2*%
X95109420Y-65280000D02*
X95390580Y-65280000D01*
X95109420Y-64260000D02*
X95390580Y-64260000D01*
%TD*%
M02*
