M48
; DRILL file {KiCad (6.0.1-0)} date Sunday, April 10, 2022 at 02:56:43 PM
; FORMAT={-:-/ absolute / inch / decimal}
; #@! TF.CreationDate,2022-04-10T14:56:43-07:00
; #@! TF.GenerationSoftware,Kicad,Pcbnew,(6.0.1-0)
; #@! TF.FileFunction,Plated,1,2,PTH
FMAT,2
INCH
; #@! TA.AperFunction,Plated,PTH,ViaDrill
T1C0.0130
; #@! TA.AperFunction,Plated,PTH,ViaDrill
T2C0.0157
; #@! TA.AperFunction,Plated,PTH,ComponentDrill
T3C0.0157
; #@! TA.AperFunction,Plated,PTH,ComponentDrill
T4C0.0276
; #@! TA.AperFunction,Plated,PTH,ComponentDrill
T5C0.0315
; #@! TA.AperFunction,Plated,PTH,ComponentDrill
T6C0.0354
; #@! TA.AperFunction,Plated,PTH,ComponentDrill
T7C0.0394
; #@! TA.AperFunction,Plated,PTH,ComponentDrill
T8C0.0402
; #@! TA.AperFunction,Plated,PTH,ComponentDrill
T9C0.0433
; #@! TA.AperFunction,Plated,PTH,ComponentDrill
T10C0.0520
; #@! TA.AperFunction,Plated,PTH,ComponentDrill
T11C0.0709
; #@! TA.AperFunction,Plated,PTH,ComponentDrill
T12C0.1378
%
G90
G05
T1
X2.9111Y-2.7592
X2.9817Y-2.9462
X3.0217Y-2.8462
X3.1198Y-2.6033
X3.1417Y-2.7612
X3.1917Y-2.7612
X4.4569Y-2.5929
X4.5669Y-3.0029
X4.62Y-3.07
T2
X2.4787Y-2.8742
X2.53Y-3.9
X2.5345Y-3.63
X2.6Y-3.63
X2.64Y-2.66
X2.644Y-2.7172
X2.66Y-3.63
X2.7862Y-2.9067
X2.84Y-2.98
X2.86Y-2.9
X2.9Y-2.66
X2.96Y-3.57
X2.9722Y-2.8378
X2.9724Y-3.7008
X3.04Y-3.08
X3.075Y-3.585
X3.08Y-3.52
X3.115Y-3.475
X3.1201Y-3.5925
X3.189Y-3.7008
X3.24Y-3.5
X3.25Y-3.46
X3.25Y-3.61
X3.31Y-3.62
X3.37Y-3.61
X3.42Y-3.34
X3.43Y-3.61
X3.4646Y-3.5472
X3.4892Y-3.7102
X3.4993Y-2.889
X3.5317Y-2.9412
X3.5335Y-3.3563
X3.5426Y-3.4091
X3.55Y-3.525
X3.5593Y-3.1121
X3.5619Y-3.4819
X3.563Y-3.7402
X3.565Y-3.44
X3.63Y-3.7347
X3.637Y-3.2047
X3.6614Y-3.0728
X3.6713Y-3.3567
X3.6787Y-2.6992
X3.68Y-3.61
X3.6909Y-3.563
X3.6952Y-2.8003
X3.7008Y-2.8629
X3.7008Y-2.9228
X3.7008Y-3.0129
X3.7008Y-3.0728
X3.7029Y-2.9727
X3.725Y-2.55
X3.7303Y-3.7303
X3.7387Y-3.2958
X3.7479Y-3.5597
X3.75Y-3.6713
X3.7732Y-3.2614
X3.775Y-2.55
X3.775Y-2.65
X3.7872Y-2.6929
X3.7894Y-3.189
X3.79Y-3.54
X3.8Y-3.5
X3.849Y-2.5984
X3.85Y-3.34
X3.8573Y-3.6122
X3.8583Y-2.9528
X3.9Y-3.23
X3.9173Y-3.6122
X3.9173Y-3.75
X3.92Y-3.4974
X3.9567Y-3.2283
X3.9764Y-2.9921
X4.005Y-3.12
X4.0063Y-3.3755
X4.0207Y-3.0562
X4.05Y-3.92
X4.09Y-2.84
X4.0945Y-2.9921
X4.095Y-3.16
X4.1043Y-3.0709
X4.1469Y-3.2322
X4.1535Y-3.5827
X4.17Y-3.65
X4.22Y-3.36
X4.225Y-3.405
X4.24Y-3.65
X4.2913Y-3.2283
X4.3012Y-3.435
X4.34Y-3.5075
X4.37Y-3.33
X4.3799Y-2.874
X4.4Y-3.3675
X4.4Y-3.4325
X4.44Y-3.3
X4.4565Y-3.1929
X4.4587Y-2.5394
X4.4882Y-3.435
X4.5183Y-3.0091
X4.5276Y-2.5394
X4.5571Y-2.7728
X4.5866Y-3.4449
X4.5965Y-2.6629
X4.6234Y-3.1605
X4.6949Y-2.628
X4.72Y-3.16
X4.7736Y-2.9035
X4.8622Y-3.3071
X5.0197Y-3.5138
X5.0787Y-3.4744
X5.1083Y-3.5138
X5.1476Y-3.5828
X5.1476Y-4.1831
X5.38Y-3.6
X5.4232Y-3.523
X5.4405Y-3.6
X5.5825Y-3.6
X5.6496Y-3.5138
X5.66Y-3.6
T4
X3.38Y-2.92
X3.38Y-2.97
X3.38Y-3.02
X3.38Y-3.07
X3.38Y-3.12
X3.43Y-2.92
X3.43Y-2.97
X3.43Y-3.02
X3.43Y-3.07
X3.43Y-3.12
T5
X2.644Y-2.8512
X2.644Y-3.1512
T6
X2.81Y-3.22
X2.81Y-3.32
X3.03Y-3.2721
X3.03Y-3.3721
X4.6787Y-3.2089
X4.6787Y-3.3089
X5.0Y-2.7552
X5.0Y-2.8552
T7
X2.518Y-3.48
X2.5191Y-3.7992
X2.618Y-3.48
X2.6191Y-3.7992
X2.718Y-3.48
X2.7191Y-3.7992
X2.8191Y-3.7992
X2.9191Y-3.7992
X3.0191Y-3.7992
X3.1191Y-3.7992
X3.2191Y-3.7992
X3.3191Y-3.7992
X3.4191Y-3.7992
X3.5191Y-3.7992
X3.6Y-2.5628
X3.6Y-2.6628
X3.6Y-2.7628
X3.6Y-2.8628
X3.6Y-2.9628
X3.6Y-3.0628
X3.6Y-3.1628
X3.6Y-3.2628
X3.6191Y-3.7992
X3.7191Y-3.7992
X3.8191Y-3.7992
X3.9191Y-3.7992
X4.0191Y-3.7992
X5.4424Y-4.517
X5.4884Y-3.6877
X5.4884Y-4.2586
X5.5869Y-4.2586
X5.59Y-4.517
X5.6853Y-3.6877
X5.6853Y-4.2586
X5.7376Y-4.517
T8
X4.6913Y-2.7209
X4.6913Y-2.8209
X4.6913Y-2.9209
X4.6913Y-3.0209
X4.98Y-3.0398
X4.98Y-3.1398
X4.98Y-3.2398
X4.98Y-3.3398
T9
X2.57Y-2.45
X2.97Y-2.45
T10
X2.1Y-3.1
X2.1Y-3.3
X2.3Y-3.1
X2.3Y-3.3
T12
X2.1654Y-2.3622
X2.1654Y-5.315
X4.9213Y-2.3622
X5.9055Y-5.315
T3
G00X2.1496Y-2.7933
M15
G01X2.1496Y-2.7028
M16
G05
G00X2.2244Y-2.9331
M15
G01X2.315Y-2.9331
M16
G05
G00X2.3858Y-2.7933
M15
G01X2.3858Y-2.7028
M16
G05
T11
G00X5.3624Y-3.9475
M15
G01X5.3624Y-3.979
M16
G05
G00X5.3853Y-4.8645
M15
G01X5.3853Y-4.8251
M16
G05
G00X5.7947Y-4.8645
M15
G01X5.7947Y-4.8251
M16
G05
G00X5.8113Y-3.9475
M15
G01X5.8113Y-3.979
M16
G05
T0
M30
