%TF.GenerationSoftware,KiCad,Pcbnew,(6.0.1-0)*%
%TF.CreationDate,2022-04-10T14:57:14-07:00*%
%TF.ProjectId,CocktailMachine,436f636b-7461-4696-9c4d-616368696e65,rev?*%
%TF.SameCoordinates,Original*%
%TF.FileFunction,Soldermask,Bot*%
%TF.FilePolarity,Negative*%
%FSLAX46Y46*%
G04 Gerber Fmt 4.6, Leading zero omitted, Abs format (unit mm)*
G04 Created by KiCad (PCBNEW (6.0.1-0)) date 2022-04-10 14:57:14*
%MOMM*%
%LPD*%
G01*
G04 APERTURE LIST*
G04 Aperture macros list*
%AMRoundRect*
0 Rectangle with rounded corners*
0 $1 Rounding radius*
0 $2 $3 $4 $5 $6 $7 $8 $9 X,Y pos of 4 corners*
0 Add a 4 corners polygon primitive as box body*
4,1,4,$2,$3,$4,$5,$6,$7,$8,$9,$2,$3,0*
0 Add four circle primitives for the rounded corners*
1,1,$1+$1,$2,$3*
1,1,$1+$1,$4,$5*
1,1,$1+$1,$6,$7*
1,1,$1+$1,$8,$9*
0 Add four rect primitives between the rounded corners*
20,1,$1+$1,$2,$3,$4,$5,0*
20,1,$1+$1,$4,$5,$6,$7,0*
20,1,$1+$1,$6,$7,$8,$9,0*
20,1,$1+$1,$8,$9,$2,$3,0*%
G04 Aperture macros list end*
%ADD10R,1.800000X1.800000*%
%ADD11C,1.800000*%
%ADD12R,2.200000X2.200000*%
%ADD13O,2.200000X2.200000*%
%ADD14R,1.600000X1.600000*%
%ADD15O,1.600000X1.600000*%
%ADD16R,1.700000X1.700000*%
%ADD17O,1.700000X1.700000*%
%ADD18C,2.020000*%
%ADD19C,1.100000*%
%ADD20C,2.082800*%
%ADD21R,2.000000X2.000000*%
%ADD22C,2.000000*%
%ADD23R,2.800000X3.800000*%
%ADD24R,2.800000X3.600000*%
%ADD25C,1.700000*%
%ADD26O,1.498600X4.013200*%
%ADD27O,1.498600X3.505200*%
%ADD28O,3.505200X1.498600*%
%ADD29C,7.000000*%
%ADD30RoundRect,0.225000X0.225000X0.250000X-0.225000X0.250000X-0.225000X-0.250000X0.225000X-0.250000X0*%
%ADD31RoundRect,0.225000X-0.225000X-0.250000X0.225000X-0.250000X0.225000X0.250000X-0.225000X0.250000X0*%
%ADD32RoundRect,0.200000X-0.275000X0.200000X-0.275000X-0.200000X0.275000X-0.200000X0.275000X0.200000X0*%
%ADD33RoundRect,0.200000X-0.200000X-0.275000X0.200000X-0.275000X0.200000X0.275000X-0.200000X0.275000X0*%
G04 APERTURE END LIST*
D10*
%TO.C,D1*%
X127000000Y-72522000D03*
D11*
X127000000Y-69982000D03*
%TD*%
D10*
%TO.C,D2*%
X118839790Y-84047210D03*
D11*
X118839790Y-81507210D03*
%TD*%
D12*
%TO.C,D4*%
X75438000Y-62230000D03*
D13*
X65278000Y-62230000D03*
%TD*%
D10*
%TO.C,D5*%
X71374000Y-84328000D03*
D11*
X71374000Y-81788000D03*
%TD*%
D10*
%TO.C,D6*%
X76962000Y-83111000D03*
D11*
X76962000Y-85651000D03*
%TD*%
D14*
%TO.C,D7*%
X67158000Y-72420000D03*
D15*
X67158000Y-80040000D03*
%TD*%
D16*
%TO.C,J1*%
X91440000Y-82875000D03*
D17*
X91440000Y-80335000D03*
X91440000Y-77795000D03*
X91440000Y-75255000D03*
X91440000Y-72715000D03*
X91440000Y-70175000D03*
X91440000Y-67635000D03*
X91440000Y-65095000D03*
%TD*%
D18*
%TO.C,J2*%
X126492000Y-84831000D03*
X126492000Y-82291000D03*
X126492000Y-79751000D03*
X126492000Y-77211000D03*
%TD*%
D19*
%TO.C,J3*%
X85852000Y-74168000D03*
X87122000Y-74168000D03*
X85852000Y-75438000D03*
X87122000Y-75438000D03*
X85852000Y-76708000D03*
X87122000Y-76708000D03*
X85852000Y-77978000D03*
X87122000Y-77978000D03*
X85852000Y-79248000D03*
X87122000Y-79248000D03*
%TD*%
D20*
%TO.C,J5*%
X58420000Y-78740000D03*
X53340000Y-78740000D03*
%TD*%
%TO.C,J6*%
X58420000Y-83820000D03*
X53340000Y-83820000D03*
%TD*%
D21*
%TO.C,POT1*%
X145736000Y-114733000D03*
D22*
X141986000Y-114733000D03*
X138236000Y-114733000D03*
D23*
X136786000Y-123058000D03*
X147186000Y-123058000D03*
%TD*%
D22*
%TO.C,S1*%
X139406000Y-93667471D03*
X144406000Y-93667471D03*
D24*
X136206000Y-100667471D03*
X147606000Y-100667471D03*
D22*
X139406000Y-108167471D03*
X144406000Y-108167471D03*
X141906000Y-108167471D03*
%TD*%
D21*
%TO.C,U5*%
X63956000Y-88392000D03*
D22*
X66496000Y-88392000D03*
X69036000Y-88392000D03*
%TD*%
D18*
%TO.C,J7*%
X119158000Y-69111000D03*
X119158000Y-71651000D03*
X119158000Y-74191000D03*
X119158000Y-76731000D03*
%TD*%
D25*
%TO.C,LCD1*%
X102085000Y-96499471D03*
X99545000Y-96499471D03*
X97005000Y-96499471D03*
X94465000Y-96499471D03*
X91925000Y-96499471D03*
X89385000Y-96499471D03*
X86845000Y-96499471D03*
X84305000Y-96499471D03*
X81765000Y-96499471D03*
X79225000Y-96499471D03*
X76685000Y-96499471D03*
X74145000Y-96499471D03*
X71605000Y-96499471D03*
X69065000Y-96499471D03*
X66525000Y-96499471D03*
X63985000Y-96499471D03*
%TD*%
D26*
%TO.C,J4*%
X60600001Y-69800000D03*
D27*
X54600000Y-69800000D03*
D28*
X57650001Y-74500001D03*
%TD*%
D29*
%TO.C,*%
X55000000Y-135000000D03*
%TD*%
%TO.C,*%
X150000000Y-135000000D03*
%TD*%
%TO.C,REF\u002A\u002A*%
X125000000Y-60000000D03*
%TD*%
%TO.C,*%
X55000000Y-60000000D03*
%TD*%
D30*
%TO.C,C1*%
X115000000Y-64500000D03*
X113450000Y-64500000D03*
%TD*%
%TO.C,C3*%
X96025000Y-67310000D03*
X94475000Y-67310000D03*
%TD*%
D31*
%TO.C,C17*%
X79658000Y-70135000D03*
X81208000Y-70135000D03*
%TD*%
D32*
%TO.C,R6*%
X100500000Y-80350000D03*
X100500000Y-82000000D03*
%TD*%
D33*
%TO.C,R5*%
X94425000Y-81226000D03*
X96075000Y-81226000D03*
%TD*%
D32*
%TO.C,R8*%
X109220000Y-80175000D03*
X109220000Y-81825000D03*
%TD*%
D33*
%TO.C,R7*%
X94425000Y-79702000D03*
X96075000Y-79702000D03*
%TD*%
D31*
%TO.C,C2*%
X94475000Y-64770000D03*
X96025000Y-64770000D03*
%TD*%
M02*
