%TF.GenerationSoftware,KiCad,Pcbnew,(6.0.1-0)*%
%TF.CreationDate,2022-03-27T10:04:36-07:00*%
%TF.ProjectId,CocktailMachine,436f636b-7461-4696-9c4d-616368696e65,rev?*%
%TF.SameCoordinates,Original*%
%TF.FileFunction,Legend,Top*%
%TF.FilePolarity,Positive*%
%FSLAX46Y46*%
G04 Gerber Fmt 4.6, Leading zero omitted, Abs format (unit mm)*
G04 Created by KiCad (PCBNEW (6.0.1-0)) date 2022-03-27 10:04:36*
%MOMM*%
%LPD*%
G01*
G04 APERTURE LIST*
%ADD10C,0.150000*%
%ADD11C,0.120000*%
%ADD12C,0.100000*%
G04 APERTURE END LIST*
D10*
%TO.C,C4*%
X90328333Y-90791142D02*
X90280714Y-90838761D01*
X90137857Y-90886380D01*
X90042619Y-90886380D01*
X89899761Y-90838761D01*
X89804523Y-90743523D01*
X89756904Y-90648285D01*
X89709285Y-90457809D01*
X89709285Y-90314952D01*
X89756904Y-90124476D01*
X89804523Y-90029238D01*
X89899761Y-89934000D01*
X90042619Y-89886380D01*
X90137857Y-89886380D01*
X90280714Y-89934000D01*
X90328333Y-89981619D01*
X91185476Y-90219714D02*
X91185476Y-90886380D01*
X90947380Y-89838761D02*
X90709285Y-90553047D01*
X91328333Y-90553047D01*
%TO.C,C5*%
X136993333Y-90273142D02*
X136945714Y-90320761D01*
X136802857Y-90368380D01*
X136707619Y-90368380D01*
X136564761Y-90320761D01*
X136469523Y-90225523D01*
X136421904Y-90130285D01*
X136374285Y-89939809D01*
X136374285Y-89796952D01*
X136421904Y-89606476D01*
X136469523Y-89511238D01*
X136564761Y-89416000D01*
X136707619Y-89368380D01*
X136802857Y-89368380D01*
X136945714Y-89416000D01*
X136993333Y-89463619D01*
X137898095Y-89368380D02*
X137421904Y-89368380D01*
X137374285Y-89844571D01*
X137421904Y-89796952D01*
X137517142Y-89749333D01*
X137755238Y-89749333D01*
X137850476Y-89796952D01*
X137898095Y-89844571D01*
X137945714Y-89939809D01*
X137945714Y-90177904D01*
X137898095Y-90273142D01*
X137850476Y-90320761D01*
X137755238Y-90368380D01*
X137517142Y-90368380D01*
X137421904Y-90320761D01*
X137374285Y-90273142D01*
%TO.C,C6*%
X102448333Y-93067142D02*
X102400714Y-93114761D01*
X102257857Y-93162380D01*
X102162619Y-93162380D01*
X102019761Y-93114761D01*
X101924523Y-93019523D01*
X101876904Y-92924285D01*
X101829285Y-92733809D01*
X101829285Y-92590952D01*
X101876904Y-92400476D01*
X101924523Y-92305238D01*
X102019761Y-92210000D01*
X102162619Y-92162380D01*
X102257857Y-92162380D01*
X102400714Y-92210000D01*
X102448333Y-92257619D01*
X103305476Y-92162380D02*
X103115000Y-92162380D01*
X103019761Y-92210000D01*
X102972142Y-92257619D01*
X102876904Y-92400476D01*
X102829285Y-92590952D01*
X102829285Y-92971904D01*
X102876904Y-93067142D01*
X102924523Y-93114761D01*
X103019761Y-93162380D01*
X103210238Y-93162380D01*
X103305476Y-93114761D01*
X103353095Y-93067142D01*
X103400714Y-92971904D01*
X103400714Y-92733809D01*
X103353095Y-92638571D01*
X103305476Y-92590952D01*
X103210238Y-92543333D01*
X103019761Y-92543333D01*
X102924523Y-92590952D01*
X102876904Y-92638571D01*
X102829285Y-92733809D01*
%TO.C,C7*%
X147153333Y-91797142D02*
X147105714Y-91844761D01*
X146962857Y-91892380D01*
X146867619Y-91892380D01*
X146724761Y-91844761D01*
X146629523Y-91749523D01*
X146581904Y-91654285D01*
X146534285Y-91463809D01*
X146534285Y-91320952D01*
X146581904Y-91130476D01*
X146629523Y-91035238D01*
X146724761Y-90940000D01*
X146867619Y-90892380D01*
X146962857Y-90892380D01*
X147105714Y-90940000D01*
X147153333Y-90987619D01*
X147486666Y-90892380D02*
X148153333Y-90892380D01*
X147724761Y-91892380D01*
%TO.C,C8*%
X99583333Y-93607142D02*
X99535714Y-93654761D01*
X99392857Y-93702380D01*
X99297619Y-93702380D01*
X99154761Y-93654761D01*
X99059523Y-93559523D01*
X99011904Y-93464285D01*
X98964285Y-93273809D01*
X98964285Y-93130952D01*
X99011904Y-92940476D01*
X99059523Y-92845238D01*
X99154761Y-92750000D01*
X99297619Y-92702380D01*
X99392857Y-92702380D01*
X99535714Y-92750000D01*
X99583333Y-92797619D01*
X100154761Y-93130952D02*
X100059523Y-93083333D01*
X100011904Y-93035714D01*
X99964285Y-92940476D01*
X99964285Y-92892857D01*
X100011904Y-92797619D01*
X100059523Y-92750000D01*
X100154761Y-92702380D01*
X100345238Y-92702380D01*
X100440476Y-92750000D01*
X100488095Y-92797619D01*
X100535714Y-92892857D01*
X100535714Y-92940476D01*
X100488095Y-93035714D01*
X100440476Y-93083333D01*
X100345238Y-93130952D01*
X100154761Y-93130952D01*
X100059523Y-93178571D01*
X100011904Y-93226190D01*
X99964285Y-93321428D01*
X99964285Y-93511904D01*
X100011904Y-93607142D01*
X100059523Y-93654761D01*
X100154761Y-93702380D01*
X100345238Y-93702380D01*
X100440476Y-93654761D01*
X100488095Y-93607142D01*
X100535714Y-93511904D01*
X100535714Y-93321428D01*
X100488095Y-93226190D01*
X100440476Y-93178571D01*
X100345238Y-93130952D01*
%TO.C,C9*%
X88629333Y-92115142D02*
X88581714Y-92162761D01*
X88438857Y-92210380D01*
X88343619Y-92210380D01*
X88200761Y-92162761D01*
X88105523Y-92067523D01*
X88057904Y-91972285D01*
X88010285Y-91781809D01*
X88010285Y-91638952D01*
X88057904Y-91448476D01*
X88105523Y-91353238D01*
X88200761Y-91258000D01*
X88343619Y-91210380D01*
X88438857Y-91210380D01*
X88581714Y-91258000D01*
X88629333Y-91305619D01*
X89105523Y-92210380D02*
X89296000Y-92210380D01*
X89391238Y-92162761D01*
X89438857Y-92115142D01*
X89534095Y-91972285D01*
X89581714Y-91781809D01*
X89581714Y-91400857D01*
X89534095Y-91305619D01*
X89486476Y-91258000D01*
X89391238Y-91210380D01*
X89200761Y-91210380D01*
X89105523Y-91258000D01*
X89057904Y-91305619D01*
X89010285Y-91400857D01*
X89010285Y-91638952D01*
X89057904Y-91734190D01*
X89105523Y-91781809D01*
X89200761Y-91829428D01*
X89391238Y-91829428D01*
X89486476Y-91781809D01*
X89534095Y-91734190D01*
X89581714Y-91638952D01*
%TO.C,C10*%
X77914142Y-92315142D02*
X77866523Y-92362761D01*
X77723666Y-92410380D01*
X77628428Y-92410380D01*
X77485571Y-92362761D01*
X77390333Y-92267523D01*
X77342714Y-92172285D01*
X77295095Y-91981809D01*
X77295095Y-91838952D01*
X77342714Y-91648476D01*
X77390333Y-91553238D01*
X77485571Y-91458000D01*
X77628428Y-91410380D01*
X77723666Y-91410380D01*
X77866523Y-91458000D01*
X77914142Y-91505619D01*
X78866523Y-92410380D02*
X78295095Y-92410380D01*
X78580809Y-92410380D02*
X78580809Y-91410380D01*
X78485571Y-91553238D01*
X78390333Y-91648476D01*
X78295095Y-91696095D01*
X79485571Y-91410380D02*
X79580809Y-91410380D01*
X79676047Y-91458000D01*
X79723666Y-91505619D01*
X79771285Y-91600857D01*
X79818904Y-91791333D01*
X79818904Y-92029428D01*
X79771285Y-92219904D01*
X79723666Y-92315142D01*
X79676047Y-92362761D01*
X79580809Y-92410380D01*
X79485571Y-92410380D01*
X79390333Y-92362761D01*
X79342714Y-92315142D01*
X79295095Y-92219904D01*
X79247476Y-92029428D01*
X79247476Y-91791333D01*
X79295095Y-91600857D01*
X79342714Y-91505619D01*
X79390333Y-91458000D01*
X79485571Y-91410380D01*
%TO.C,C11*%
X101462142Y-98526613D02*
X101414523Y-98574232D01*
X101271666Y-98621851D01*
X101176428Y-98621851D01*
X101033571Y-98574232D01*
X100938333Y-98478994D01*
X100890714Y-98383756D01*
X100843095Y-98193280D01*
X100843095Y-98050423D01*
X100890714Y-97859947D01*
X100938333Y-97764709D01*
X101033571Y-97669471D01*
X101176428Y-97621851D01*
X101271666Y-97621851D01*
X101414523Y-97669471D01*
X101462142Y-97717090D01*
X102414523Y-98621851D02*
X101843095Y-98621851D01*
X102128809Y-98621851D02*
X102128809Y-97621851D01*
X102033571Y-97764709D01*
X101938333Y-97859947D01*
X101843095Y-97907566D01*
X103366904Y-98621851D02*
X102795476Y-98621851D01*
X103081190Y-98621851D02*
X103081190Y-97621851D01*
X102985952Y-97764709D01*
X102890714Y-97859947D01*
X102795476Y-97907566D01*
%TO.C,C12*%
X64462142Y-100886613D02*
X64414523Y-100934232D01*
X64271666Y-100981851D01*
X64176428Y-100981851D01*
X64033571Y-100934232D01*
X63938333Y-100838994D01*
X63890714Y-100743756D01*
X63843095Y-100553280D01*
X63843095Y-100410423D01*
X63890714Y-100219947D01*
X63938333Y-100124709D01*
X64033571Y-100029471D01*
X64176428Y-99981851D01*
X64271666Y-99981851D01*
X64414523Y-100029471D01*
X64462142Y-100077090D01*
X65414523Y-100981851D02*
X64843095Y-100981851D01*
X65128809Y-100981851D02*
X65128809Y-99981851D01*
X65033571Y-100124709D01*
X64938333Y-100219947D01*
X64843095Y-100267566D01*
X65795476Y-100077090D02*
X65843095Y-100029471D01*
X65938333Y-99981851D01*
X66176428Y-99981851D01*
X66271666Y-100029471D01*
X66319285Y-100077090D01*
X66366904Y-100172328D01*
X66366904Y-100267566D01*
X66319285Y-100410423D01*
X65747857Y-100981851D01*
X66366904Y-100981851D01*
%TO.C,C14*%
X64745142Y-72872857D02*
X64792761Y-72920476D01*
X64840380Y-73063333D01*
X64840380Y-73158571D01*
X64792761Y-73301428D01*
X64697523Y-73396666D01*
X64602285Y-73444285D01*
X64411809Y-73491904D01*
X64268952Y-73491904D01*
X64078476Y-73444285D01*
X63983238Y-73396666D01*
X63888000Y-73301428D01*
X63840380Y-73158571D01*
X63840380Y-73063333D01*
X63888000Y-72920476D01*
X63935619Y-72872857D01*
X64840380Y-71920476D02*
X64840380Y-72491904D01*
X64840380Y-72206190D02*
X63840380Y-72206190D01*
X63983238Y-72301428D01*
X64078476Y-72396666D01*
X64126095Y-72491904D01*
X64173714Y-71063333D02*
X64840380Y-71063333D01*
X63792761Y-71301428D02*
X64507047Y-71539523D01*
X64507047Y-70920476D01*
%TO.C,C15*%
X61587142Y-92051142D02*
X61539523Y-92098761D01*
X61396666Y-92146380D01*
X61301428Y-92146380D01*
X61158571Y-92098761D01*
X61063333Y-92003523D01*
X61015714Y-91908285D01*
X60968095Y-91717809D01*
X60968095Y-91574952D01*
X61015714Y-91384476D01*
X61063333Y-91289238D01*
X61158571Y-91194000D01*
X61301428Y-91146380D01*
X61396666Y-91146380D01*
X61539523Y-91194000D01*
X61587142Y-91241619D01*
X62539523Y-92146380D02*
X61968095Y-92146380D01*
X62253809Y-92146380D02*
X62253809Y-91146380D01*
X62158571Y-91289238D01*
X62063333Y-91384476D01*
X61968095Y-91432095D01*
X63444285Y-91146380D02*
X62968095Y-91146380D01*
X62920476Y-91622571D01*
X62968095Y-91574952D01*
X63063333Y-91527333D01*
X63301428Y-91527333D01*
X63396666Y-91574952D01*
X63444285Y-91622571D01*
X63491904Y-91717809D01*
X63491904Y-91955904D01*
X63444285Y-92051142D01*
X63396666Y-92098761D01*
X63301428Y-92146380D01*
X63063333Y-92146380D01*
X62968095Y-92098761D01*
X62920476Y-92051142D01*
%TO.C,C16*%
X72430142Y-68990857D02*
X72477761Y-69038476D01*
X72525380Y-69181333D01*
X72525380Y-69276571D01*
X72477761Y-69419428D01*
X72382523Y-69514666D01*
X72287285Y-69562285D01*
X72096809Y-69609904D01*
X71953952Y-69609904D01*
X71763476Y-69562285D01*
X71668238Y-69514666D01*
X71573000Y-69419428D01*
X71525380Y-69276571D01*
X71525380Y-69181333D01*
X71573000Y-69038476D01*
X71620619Y-68990857D01*
X72525380Y-68038476D02*
X72525380Y-68609904D01*
X72525380Y-68324190D02*
X71525380Y-68324190D01*
X71668238Y-68419428D01*
X71763476Y-68514666D01*
X71811095Y-68609904D01*
X71525380Y-67181333D02*
X71525380Y-67371809D01*
X71573000Y-67467047D01*
X71620619Y-67514666D01*
X71763476Y-67609904D01*
X71953952Y-67657523D01*
X72334904Y-67657523D01*
X72430142Y-67609904D01*
X72477761Y-67562285D01*
X72525380Y-67467047D01*
X72525380Y-67276571D01*
X72477761Y-67181333D01*
X72430142Y-67133714D01*
X72334904Y-67086095D01*
X72096809Y-67086095D01*
X72001571Y-67133714D01*
X71953952Y-67181333D01*
X71906333Y-67276571D01*
X71906333Y-67467047D01*
X71953952Y-67562285D01*
X72001571Y-67609904D01*
X72096809Y-67657523D01*
%TO.C,C18*%
X82357142Y-76642857D02*
X82404761Y-76690476D01*
X82452380Y-76833333D01*
X82452380Y-76928571D01*
X82404761Y-77071428D01*
X82309523Y-77166666D01*
X82214285Y-77214285D01*
X82023809Y-77261904D01*
X81880952Y-77261904D01*
X81690476Y-77214285D01*
X81595238Y-77166666D01*
X81500000Y-77071428D01*
X81452380Y-76928571D01*
X81452380Y-76833333D01*
X81500000Y-76690476D01*
X81547619Y-76642857D01*
X82452380Y-75690476D02*
X82452380Y-76261904D01*
X82452380Y-75976190D02*
X81452380Y-75976190D01*
X81595238Y-76071428D01*
X81690476Y-76166666D01*
X81738095Y-76261904D01*
X81880952Y-75119047D02*
X81833333Y-75214285D01*
X81785714Y-75261904D01*
X81690476Y-75309523D01*
X81642857Y-75309523D01*
X81547619Y-75261904D01*
X81500000Y-75214285D01*
X81452380Y-75119047D01*
X81452380Y-74928571D01*
X81500000Y-74833333D01*
X81547619Y-74785714D01*
X81642857Y-74738095D01*
X81690476Y-74738095D01*
X81785714Y-74785714D01*
X81833333Y-74833333D01*
X81880952Y-74928571D01*
X81880952Y-75119047D01*
X81928571Y-75214285D01*
X81976190Y-75261904D01*
X82071428Y-75309523D01*
X82261904Y-75309523D01*
X82357142Y-75261904D01*
X82404761Y-75214285D01*
X82452380Y-75119047D01*
X82452380Y-74928571D01*
X82404761Y-74833333D01*
X82357142Y-74785714D01*
X82261904Y-74738095D01*
X82071428Y-74738095D01*
X81976190Y-74785714D01*
X81928571Y-74833333D01*
X81880952Y-74928571D01*
%TO.C,C19*%
X74033142Y-74271142D02*
X73985523Y-74318761D01*
X73842666Y-74366380D01*
X73747428Y-74366380D01*
X73604571Y-74318761D01*
X73509333Y-74223523D01*
X73461714Y-74128285D01*
X73414095Y-73937809D01*
X73414095Y-73794952D01*
X73461714Y-73604476D01*
X73509333Y-73509238D01*
X73604571Y-73414000D01*
X73747428Y-73366380D01*
X73842666Y-73366380D01*
X73985523Y-73414000D01*
X74033142Y-73461619D01*
X74985523Y-74366380D02*
X74414095Y-74366380D01*
X74699809Y-74366380D02*
X74699809Y-73366380D01*
X74604571Y-73509238D01*
X74509333Y-73604476D01*
X74414095Y-73652095D01*
X75461714Y-74366380D02*
X75652190Y-74366380D01*
X75747428Y-74318761D01*
X75795047Y-74271142D01*
X75890285Y-74128285D01*
X75937904Y-73937809D01*
X75937904Y-73556857D01*
X75890285Y-73461619D01*
X75842666Y-73414000D01*
X75747428Y-73366380D01*
X75556952Y-73366380D01*
X75461714Y-73414000D01*
X75414095Y-73461619D01*
X75366476Y-73556857D01*
X75366476Y-73794952D01*
X75414095Y-73890190D01*
X75461714Y-73937809D01*
X75556952Y-73985428D01*
X75747428Y-73985428D01*
X75842666Y-73937809D01*
X75890285Y-73890190D01*
X75937904Y-73794952D01*
%TO.C,C20*%
X76285142Y-79032857D02*
X76332761Y-79080476D01*
X76380380Y-79223333D01*
X76380380Y-79318571D01*
X76332761Y-79461428D01*
X76237523Y-79556666D01*
X76142285Y-79604285D01*
X75951809Y-79651904D01*
X75808952Y-79651904D01*
X75618476Y-79604285D01*
X75523238Y-79556666D01*
X75428000Y-79461428D01*
X75380380Y-79318571D01*
X75380380Y-79223333D01*
X75428000Y-79080476D01*
X75475619Y-79032857D01*
X75475619Y-78651904D02*
X75428000Y-78604285D01*
X75380380Y-78509047D01*
X75380380Y-78270952D01*
X75428000Y-78175714D01*
X75475619Y-78128095D01*
X75570857Y-78080476D01*
X75666095Y-78080476D01*
X75808952Y-78128095D01*
X76380380Y-78699523D01*
X76380380Y-78080476D01*
X75380380Y-77461428D02*
X75380380Y-77366190D01*
X75428000Y-77270952D01*
X75475619Y-77223333D01*
X75570857Y-77175714D01*
X75761333Y-77128095D01*
X75999428Y-77128095D01*
X76189904Y-77175714D01*
X76285142Y-77223333D01*
X76332761Y-77270952D01*
X76380380Y-77366190D01*
X76380380Y-77461428D01*
X76332761Y-77556666D01*
X76285142Y-77604285D01*
X76189904Y-77651904D01*
X75999428Y-77699523D01*
X75761333Y-77699523D01*
X75570857Y-77651904D01*
X75475619Y-77604285D01*
X75428000Y-77556666D01*
X75380380Y-77461428D01*
%TO.C,C21*%
X73779142Y-76049142D02*
X73731523Y-76096761D01*
X73588666Y-76144380D01*
X73493428Y-76144380D01*
X73350571Y-76096761D01*
X73255333Y-76001523D01*
X73207714Y-75906285D01*
X73160095Y-75715809D01*
X73160095Y-75572952D01*
X73207714Y-75382476D01*
X73255333Y-75287238D01*
X73350571Y-75192000D01*
X73493428Y-75144380D01*
X73588666Y-75144380D01*
X73731523Y-75192000D01*
X73779142Y-75239619D01*
X74160095Y-75239619D02*
X74207714Y-75192000D01*
X74302952Y-75144380D01*
X74541047Y-75144380D01*
X74636285Y-75192000D01*
X74683904Y-75239619D01*
X74731523Y-75334857D01*
X74731523Y-75430095D01*
X74683904Y-75572952D01*
X74112476Y-76144380D01*
X74731523Y-76144380D01*
X75683904Y-76144380D02*
X75112476Y-76144380D01*
X75398190Y-76144380D02*
X75398190Y-75144380D01*
X75302952Y-75287238D01*
X75207714Y-75382476D01*
X75112476Y-75430095D01*
%TO.C,D1*%
X124492380Y-71990095D02*
X123492380Y-71990095D01*
X123492380Y-71752000D01*
X123540000Y-71609142D01*
X123635238Y-71513904D01*
X123730476Y-71466285D01*
X123920952Y-71418666D01*
X124063809Y-71418666D01*
X124254285Y-71466285D01*
X124349523Y-71513904D01*
X124444761Y-71609142D01*
X124492380Y-71752000D01*
X124492380Y-71990095D01*
X124492380Y-70466285D02*
X124492380Y-71037714D01*
X124492380Y-70752000D02*
X123492380Y-70752000D01*
X123635238Y-70847238D01*
X123730476Y-70942476D01*
X123778095Y-71037714D01*
%TO.C,D2*%
X116332170Y-83515305D02*
X115332170Y-83515305D01*
X115332170Y-83277210D01*
X115379790Y-83134352D01*
X115475028Y-83039114D01*
X115570266Y-82991495D01*
X115760742Y-82943876D01*
X115903599Y-82943876D01*
X116094075Y-82991495D01*
X116189313Y-83039114D01*
X116284551Y-83134352D01*
X116332170Y-83277210D01*
X116332170Y-83515305D01*
X115427409Y-82562924D02*
X115379790Y-82515305D01*
X115332170Y-82420067D01*
X115332170Y-82181971D01*
X115379790Y-82086733D01*
X115427409Y-82039114D01*
X115522647Y-81991495D01*
X115617885Y-81991495D01*
X115760742Y-82039114D01*
X116332170Y-82610543D01*
X116332170Y-81991495D01*
%TO.C,D3*%
X69040380Y-68968095D02*
X68040380Y-68968095D01*
X68040380Y-68730000D01*
X68088000Y-68587142D01*
X68183238Y-68491904D01*
X68278476Y-68444285D01*
X68468952Y-68396666D01*
X68611809Y-68396666D01*
X68802285Y-68444285D01*
X68897523Y-68491904D01*
X68992761Y-68587142D01*
X69040380Y-68730000D01*
X69040380Y-68968095D01*
X68040380Y-68063333D02*
X68040380Y-67444285D01*
X68421333Y-67777619D01*
X68421333Y-67634761D01*
X68468952Y-67539523D01*
X68516571Y-67491904D01*
X68611809Y-67444285D01*
X68849904Y-67444285D01*
X68945142Y-67491904D01*
X68992761Y-67539523D01*
X69040380Y-67634761D01*
X69040380Y-67920476D01*
X68992761Y-68015714D01*
X68945142Y-68063333D01*
%TO.C,D4*%
X69619904Y-65152380D02*
X69619904Y-64152380D01*
X69858000Y-64152380D01*
X70000857Y-64200000D01*
X70096095Y-64295238D01*
X70143714Y-64390476D01*
X70191333Y-64580952D01*
X70191333Y-64723809D01*
X70143714Y-64914285D01*
X70096095Y-65009523D01*
X70000857Y-65104761D01*
X69858000Y-65152380D01*
X69619904Y-65152380D01*
X71048476Y-64485714D02*
X71048476Y-65152380D01*
X70810380Y-64104761D02*
X70572285Y-64819047D01*
X71191333Y-64819047D01*
X75176095Y-64782380D02*
X75176095Y-63782380D01*
X75747523Y-64782380D02*
X75318952Y-64210952D01*
X75747523Y-63782380D02*
X75176095Y-64353809D01*
%TO.C,D5*%
X67079904Y-83510380D02*
X67079904Y-82510380D01*
X67318000Y-82510380D01*
X67460857Y-82558000D01*
X67556095Y-82653238D01*
X67603714Y-82748476D01*
X67651333Y-82938952D01*
X67651333Y-83081809D01*
X67603714Y-83272285D01*
X67556095Y-83367523D01*
X67460857Y-83462761D01*
X67318000Y-83510380D01*
X67079904Y-83510380D01*
X68556095Y-82510380D02*
X68079904Y-82510380D01*
X68032285Y-82986571D01*
X68079904Y-82938952D01*
X68175142Y-82891333D01*
X68413238Y-82891333D01*
X68508476Y-82938952D01*
X68556095Y-82986571D01*
X68603714Y-83081809D01*
X68603714Y-83319904D01*
X68556095Y-83415142D01*
X68508476Y-83462761D01*
X68413238Y-83510380D01*
X68175142Y-83510380D01*
X68079904Y-83462761D01*
X68032285Y-83415142D01*
%TO.C,D6*%
X76529904Y-81536380D02*
X76529904Y-80536380D01*
X76768000Y-80536380D01*
X76910857Y-80584000D01*
X77006095Y-80679238D01*
X77053714Y-80774476D01*
X77101333Y-80964952D01*
X77101333Y-81107809D01*
X77053714Y-81298285D01*
X77006095Y-81393523D01*
X76910857Y-81488761D01*
X76768000Y-81536380D01*
X76529904Y-81536380D01*
X77958476Y-80536380D02*
X77768000Y-80536380D01*
X77672761Y-80584000D01*
X77625142Y-80631619D01*
X77529904Y-80774476D01*
X77482285Y-80964952D01*
X77482285Y-81345904D01*
X77529904Y-81441142D01*
X77577523Y-81488761D01*
X77672761Y-81536380D01*
X77863238Y-81536380D01*
X77958476Y-81488761D01*
X78006095Y-81441142D01*
X78053714Y-81345904D01*
X78053714Y-81107809D01*
X78006095Y-81012571D01*
X77958476Y-80964952D01*
X77863238Y-80917333D01*
X77672761Y-80917333D01*
X77577523Y-80964952D01*
X77529904Y-81012571D01*
X77482285Y-81107809D01*
%TO.C,D7*%
X69730380Y-76968095D02*
X68730380Y-76968095D01*
X68730380Y-76730000D01*
X68778000Y-76587142D01*
X68873238Y-76491904D01*
X68968476Y-76444285D01*
X69158952Y-76396666D01*
X69301809Y-76396666D01*
X69492285Y-76444285D01*
X69587523Y-76491904D01*
X69682761Y-76587142D01*
X69730380Y-76730000D01*
X69730380Y-76968095D01*
X68730380Y-76063333D02*
X68730380Y-75396666D01*
X69730380Y-75825238D01*
X69410380Y-72681904D02*
X68410380Y-72681904D01*
X69410380Y-72110476D02*
X68838952Y-72539047D01*
X68410380Y-72110476D02*
X68981809Y-72681904D01*
%TO.C,F1*%
X63056571Y-68563333D02*
X63056571Y-68896666D01*
X63580380Y-68896666D02*
X62580380Y-68896666D01*
X62580380Y-68420476D01*
X63580380Y-67515714D02*
X63580380Y-68087142D01*
X63580380Y-67801428D02*
X62580380Y-67801428D01*
X62723238Y-67896666D01*
X62818476Y-67991904D01*
X62866095Y-68087142D01*
%TO.C,J1*%
X90344666Y-61514380D02*
X90344666Y-62228666D01*
X90297047Y-62371523D01*
X90201809Y-62466761D01*
X90058952Y-62514380D01*
X89963714Y-62514380D01*
X91344666Y-62514380D02*
X90773238Y-62514380D01*
X91058952Y-62514380D02*
X91058952Y-61514380D01*
X90963714Y-61657238D01*
X90868476Y-61752476D01*
X90773238Y-61800095D01*
%TO.C,J2*%
X123618666Y-74382380D02*
X123618666Y-75096666D01*
X123571047Y-75239523D01*
X123475809Y-75334761D01*
X123332952Y-75382380D01*
X123237714Y-75382380D01*
X124047238Y-74477619D02*
X124094857Y-74430000D01*
X124190095Y-74382380D01*
X124428190Y-74382380D01*
X124523428Y-74430000D01*
X124571047Y-74477619D01*
X124618666Y-74572857D01*
X124618666Y-74668095D01*
X124571047Y-74810952D01*
X123999619Y-75382380D01*
X124618666Y-75382380D01*
%TO.C,J3*%
X82256380Y-81867333D02*
X82970666Y-81867333D01*
X83113523Y-81914952D01*
X83208761Y-82010190D01*
X83256380Y-82153047D01*
X83256380Y-82248285D01*
X82256380Y-81486380D02*
X82256380Y-80867333D01*
X82637333Y-81200666D01*
X82637333Y-81057809D01*
X82684952Y-80962571D01*
X82732571Y-80914952D01*
X82827809Y-80867333D01*
X83065904Y-80867333D01*
X83161142Y-80914952D01*
X83208761Y-80962571D01*
X83256380Y-81057809D01*
X83256380Y-81343523D01*
X83208761Y-81438761D01*
X83161142Y-81486380D01*
%TO.C,J5*%
X60118666Y-80224380D02*
X60118666Y-80938666D01*
X60071047Y-81081523D01*
X59975809Y-81176761D01*
X59832952Y-81224380D01*
X59737714Y-81224380D01*
X61071047Y-80224380D02*
X60594857Y-80224380D01*
X60547238Y-80700571D01*
X60594857Y-80652952D01*
X60690095Y-80605333D01*
X60928190Y-80605333D01*
X61023428Y-80652952D01*
X61071047Y-80700571D01*
X61118666Y-80795809D01*
X61118666Y-81033904D01*
X61071047Y-81129142D01*
X61023428Y-81176761D01*
X60928190Y-81224380D01*
X60690095Y-81224380D01*
X60594857Y-81176761D01*
X60547238Y-81129142D01*
%TO.C,J6*%
X60372666Y-84796380D02*
X60372666Y-85510666D01*
X60325047Y-85653523D01*
X60229809Y-85748761D01*
X60086952Y-85796380D01*
X59991714Y-85796380D01*
X61277428Y-84796380D02*
X61086952Y-84796380D01*
X60991714Y-84844000D01*
X60944095Y-84891619D01*
X60848857Y-85034476D01*
X60801238Y-85224952D01*
X60801238Y-85605904D01*
X60848857Y-85701142D01*
X60896476Y-85748761D01*
X60991714Y-85796380D01*
X61182190Y-85796380D01*
X61277428Y-85748761D01*
X61325047Y-85701142D01*
X61372666Y-85605904D01*
X61372666Y-85367809D01*
X61325047Y-85272571D01*
X61277428Y-85224952D01*
X61182190Y-85177333D01*
X60991714Y-85177333D01*
X60896476Y-85224952D01*
X60848857Y-85272571D01*
X60801238Y-85367809D01*
%TO.C,L1*%
X80097333Y-76398380D02*
X79621142Y-76398380D01*
X79621142Y-75398380D01*
X80954476Y-76398380D02*
X80383047Y-76398380D01*
X80668761Y-76398380D02*
X80668761Y-75398380D01*
X80573523Y-75541238D01*
X80478285Y-75636476D01*
X80383047Y-75684095D01*
%TO.C,L2*%
X81986380Y-78906666D02*
X81986380Y-79382857D01*
X80986380Y-79382857D01*
X81081619Y-78620952D02*
X81034000Y-78573333D01*
X80986380Y-78478095D01*
X80986380Y-78240000D01*
X81034000Y-78144761D01*
X81081619Y-78097142D01*
X81176857Y-78049523D01*
X81272095Y-78049523D01*
X81414952Y-78097142D01*
X81986380Y-78668571D01*
X81986380Y-78049523D01*
%TO.C,L3*%
X71391333Y-72492380D02*
X70915142Y-72492380D01*
X70915142Y-71492380D01*
X71629428Y-71492380D02*
X72248476Y-71492380D01*
X71915142Y-71873333D01*
X72058000Y-71873333D01*
X72153238Y-71920952D01*
X72200857Y-71968571D01*
X72248476Y-72063809D01*
X72248476Y-72301904D01*
X72200857Y-72397142D01*
X72153238Y-72444761D01*
X72058000Y-72492380D01*
X71772285Y-72492380D01*
X71677047Y-72444761D01*
X71629428Y-72397142D01*
%TO.C,POT1*%
X133739142Y-112212380D02*
X133739142Y-111212380D01*
X134120095Y-111212380D01*
X134215333Y-111260000D01*
X134262952Y-111307619D01*
X134310571Y-111402857D01*
X134310571Y-111545714D01*
X134262952Y-111640952D01*
X134215333Y-111688571D01*
X134120095Y-111736190D01*
X133739142Y-111736190D01*
X134929619Y-111212380D02*
X135120095Y-111212380D01*
X135215333Y-111260000D01*
X135310571Y-111355238D01*
X135358190Y-111545714D01*
X135358190Y-111879047D01*
X135310571Y-112069523D01*
X135215333Y-112164761D01*
X135120095Y-112212380D01*
X134929619Y-112212380D01*
X134834380Y-112164761D01*
X134739142Y-112069523D01*
X134691523Y-111879047D01*
X134691523Y-111545714D01*
X134739142Y-111355238D01*
X134834380Y-111260000D01*
X134929619Y-111212380D01*
X135643904Y-111212380D02*
X136215333Y-111212380D01*
X135929619Y-112212380D02*
X135929619Y-111212380D01*
X137072476Y-112212380D02*
X136501047Y-112212380D01*
X136786761Y-112212380D02*
X136786761Y-111212380D01*
X136691523Y-111355238D01*
X136596285Y-111450476D01*
X136501047Y-111498095D01*
%TO.C,R1*%
X111339333Y-93436380D02*
X111006000Y-92960190D01*
X110767904Y-93436380D02*
X110767904Y-92436380D01*
X111148857Y-92436380D01*
X111244095Y-92484000D01*
X111291714Y-92531619D01*
X111339333Y-92626857D01*
X111339333Y-92769714D01*
X111291714Y-92864952D01*
X111244095Y-92912571D01*
X111148857Y-92960190D01*
X110767904Y-92960190D01*
X112291714Y-93436380D02*
X111720285Y-93436380D01*
X112006000Y-93436380D02*
X112006000Y-92436380D01*
X111910761Y-92579238D01*
X111815523Y-92674476D01*
X111720285Y-92722095D01*
%TO.C,R2*%
X100528380Y-89274408D02*
X100052190Y-89607742D01*
X100528380Y-89845837D02*
X99528380Y-89845837D01*
X99528380Y-89464884D01*
X99576000Y-89369646D01*
X99623619Y-89322027D01*
X99718857Y-89274408D01*
X99861714Y-89274408D01*
X99956952Y-89322027D01*
X100004571Y-89369646D01*
X100052190Y-89464884D01*
X100052190Y-89845837D01*
X99623619Y-88893456D02*
X99576000Y-88845837D01*
X99528380Y-88750599D01*
X99528380Y-88512503D01*
X99576000Y-88417265D01*
X99623619Y-88369646D01*
X99718857Y-88322027D01*
X99814095Y-88322027D01*
X99956952Y-88369646D01*
X100528380Y-88941075D01*
X100528380Y-88322027D01*
%TO.C,R3*%
X123785333Y-68270380D02*
X123452000Y-67794190D01*
X123213904Y-68270380D02*
X123213904Y-67270380D01*
X123594857Y-67270380D01*
X123690095Y-67318000D01*
X123737714Y-67365619D01*
X123785333Y-67460857D01*
X123785333Y-67603714D01*
X123737714Y-67698952D01*
X123690095Y-67746571D01*
X123594857Y-67794190D01*
X123213904Y-67794190D01*
X124118666Y-67270380D02*
X124737714Y-67270380D01*
X124404380Y-67651333D01*
X124547238Y-67651333D01*
X124642476Y-67698952D01*
X124690095Y-67746571D01*
X124737714Y-67841809D01*
X124737714Y-68079904D01*
X124690095Y-68175142D01*
X124642476Y-68222761D01*
X124547238Y-68270380D01*
X124261523Y-68270380D01*
X124166285Y-68222761D01*
X124118666Y-68175142D01*
%TO.C,R4*%
X115911333Y-79700380D02*
X115578000Y-79224190D01*
X115339904Y-79700380D02*
X115339904Y-78700380D01*
X115720857Y-78700380D01*
X115816095Y-78748000D01*
X115863714Y-78795619D01*
X115911333Y-78890857D01*
X115911333Y-79033714D01*
X115863714Y-79128952D01*
X115816095Y-79176571D01*
X115720857Y-79224190D01*
X115339904Y-79224190D01*
X116768476Y-79033714D02*
X116768476Y-79700380D01*
X116530380Y-78652761D02*
X116292285Y-79367047D01*
X116911333Y-79367047D01*
%TO.C,R9*%
X139787333Y-90368380D02*
X139454000Y-89892190D01*
X139215904Y-90368380D02*
X139215904Y-89368380D01*
X139596857Y-89368380D01*
X139692095Y-89416000D01*
X139739714Y-89463619D01*
X139787333Y-89558857D01*
X139787333Y-89701714D01*
X139739714Y-89796952D01*
X139692095Y-89844571D01*
X139596857Y-89892190D01*
X139215904Y-89892190D01*
X140263523Y-90368380D02*
X140454000Y-90368380D01*
X140549238Y-90320761D01*
X140596857Y-90273142D01*
X140692095Y-90130285D01*
X140739714Y-89939809D01*
X140739714Y-89558857D01*
X140692095Y-89463619D01*
X140644476Y-89416000D01*
X140549238Y-89368380D01*
X140358761Y-89368380D01*
X140263523Y-89416000D01*
X140215904Y-89463619D01*
X140168285Y-89558857D01*
X140168285Y-89796952D01*
X140215904Y-89892190D01*
X140263523Y-89939809D01*
X140358761Y-89987428D01*
X140549238Y-89987428D01*
X140644476Y-89939809D01*
X140692095Y-89892190D01*
X140739714Y-89796952D01*
%TO.C,R10*%
X141867884Y-88336380D02*
X141534551Y-87860190D01*
X141296456Y-88336380D02*
X141296456Y-87336380D01*
X141677408Y-87336380D01*
X141772646Y-87384000D01*
X141820265Y-87431619D01*
X141867884Y-87526857D01*
X141867884Y-87669714D01*
X141820265Y-87764952D01*
X141772646Y-87812571D01*
X141677408Y-87860190D01*
X141296456Y-87860190D01*
X142820265Y-88336380D02*
X142248837Y-88336380D01*
X142534551Y-88336380D02*
X142534551Y-87336380D01*
X142439313Y-87479238D01*
X142344075Y-87574476D01*
X142248837Y-87622095D01*
X143439313Y-87336380D02*
X143534551Y-87336380D01*
X143629789Y-87384000D01*
X143677408Y-87431619D01*
X143725027Y-87526857D01*
X143772646Y-87717333D01*
X143772646Y-87955428D01*
X143725027Y-88145904D01*
X143677408Y-88241142D01*
X143629789Y-88288761D01*
X143534551Y-88336380D01*
X143439313Y-88336380D01*
X143344075Y-88288761D01*
X143296456Y-88241142D01*
X143248837Y-88145904D01*
X143201218Y-87955428D01*
X143201218Y-87717333D01*
X143248837Y-87526857D01*
X143296456Y-87431619D01*
X143344075Y-87384000D01*
X143439313Y-87336380D01*
%TO.C,R11*%
X114412380Y-87002857D02*
X113936190Y-87336190D01*
X114412380Y-87574285D02*
X113412380Y-87574285D01*
X113412380Y-87193333D01*
X113460000Y-87098095D01*
X113507619Y-87050476D01*
X113602857Y-87002857D01*
X113745714Y-87002857D01*
X113840952Y-87050476D01*
X113888571Y-87098095D01*
X113936190Y-87193333D01*
X113936190Y-87574285D01*
X114412380Y-86050476D02*
X114412380Y-86621904D01*
X114412380Y-86336190D02*
X113412380Y-86336190D01*
X113555238Y-86431428D01*
X113650476Y-86526666D01*
X113698095Y-86621904D01*
X114412380Y-85098095D02*
X114412380Y-85669523D01*
X114412380Y-85383809D02*
X113412380Y-85383809D01*
X113555238Y-85479047D01*
X113650476Y-85574285D01*
X113698095Y-85669523D01*
%TO.C,R13*%
X70731142Y-80109380D02*
X70397809Y-79633190D01*
X70159714Y-80109380D02*
X70159714Y-79109380D01*
X70540666Y-79109380D01*
X70635904Y-79157000D01*
X70683523Y-79204619D01*
X70731142Y-79299857D01*
X70731142Y-79442714D01*
X70683523Y-79537952D01*
X70635904Y-79585571D01*
X70540666Y-79633190D01*
X70159714Y-79633190D01*
X71683523Y-80109380D02*
X71112095Y-80109380D01*
X71397809Y-80109380D02*
X71397809Y-79109380D01*
X71302571Y-79252238D01*
X71207333Y-79347476D01*
X71112095Y-79395095D01*
X72016857Y-79109380D02*
X72635904Y-79109380D01*
X72302571Y-79490333D01*
X72445428Y-79490333D01*
X72540666Y-79537952D01*
X72588285Y-79585571D01*
X72635904Y-79680809D01*
X72635904Y-79918904D01*
X72588285Y-80014142D01*
X72540666Y-80061761D01*
X72445428Y-80109380D01*
X72159714Y-80109380D01*
X72064476Y-80061761D01*
X72016857Y-80014142D01*
%TO.C,R14*%
X75984380Y-90108857D02*
X75508190Y-90442190D01*
X75984380Y-90680285D02*
X74984380Y-90680285D01*
X74984380Y-90299333D01*
X75032000Y-90204095D01*
X75079619Y-90156476D01*
X75174857Y-90108857D01*
X75317714Y-90108857D01*
X75412952Y-90156476D01*
X75460571Y-90204095D01*
X75508190Y-90299333D01*
X75508190Y-90680285D01*
X75984380Y-89156476D02*
X75984380Y-89727904D01*
X75984380Y-89442190D02*
X74984380Y-89442190D01*
X75127238Y-89537428D01*
X75222476Y-89632666D01*
X75270095Y-89727904D01*
X75317714Y-88299333D02*
X75984380Y-88299333D01*
X74936761Y-88537428D02*
X75651047Y-88775523D01*
X75651047Y-88156476D01*
%TO.C,R15*%
X83585380Y-67602857D02*
X83109190Y-67936190D01*
X83585380Y-68174285D02*
X82585380Y-68174285D01*
X82585380Y-67793333D01*
X82633000Y-67698095D01*
X82680619Y-67650476D01*
X82775857Y-67602857D01*
X82918714Y-67602857D01*
X83013952Y-67650476D01*
X83061571Y-67698095D01*
X83109190Y-67793333D01*
X83109190Y-68174285D01*
X83585380Y-66650476D02*
X83585380Y-67221904D01*
X83585380Y-66936190D02*
X82585380Y-66936190D01*
X82728238Y-67031428D01*
X82823476Y-67126666D01*
X82871095Y-67221904D01*
X82585380Y-65745714D02*
X82585380Y-66221904D01*
X83061571Y-66269523D01*
X83013952Y-66221904D01*
X82966333Y-66126666D01*
X82966333Y-65888571D01*
X83013952Y-65793333D01*
X83061571Y-65745714D01*
X83156809Y-65698095D01*
X83394904Y-65698095D01*
X83490142Y-65745714D01*
X83537761Y-65793333D01*
X83585380Y-65888571D01*
X83585380Y-66126666D01*
X83537761Y-66221904D01*
X83490142Y-66269523D01*
%TO.C,R16*%
X78715380Y-74070857D02*
X78239190Y-74404190D01*
X78715380Y-74642285D02*
X77715380Y-74642285D01*
X77715380Y-74261333D01*
X77763000Y-74166095D01*
X77810619Y-74118476D01*
X77905857Y-74070857D01*
X78048714Y-74070857D01*
X78143952Y-74118476D01*
X78191571Y-74166095D01*
X78239190Y-74261333D01*
X78239190Y-74642285D01*
X78715380Y-73118476D02*
X78715380Y-73689904D01*
X78715380Y-73404190D02*
X77715380Y-73404190D01*
X77858238Y-73499428D01*
X77953476Y-73594666D01*
X78001095Y-73689904D01*
X77715380Y-72261333D02*
X77715380Y-72451809D01*
X77763000Y-72547047D01*
X77810619Y-72594666D01*
X77953476Y-72689904D01*
X78143952Y-72737523D01*
X78524904Y-72737523D01*
X78620142Y-72689904D01*
X78667761Y-72642285D01*
X78715380Y-72547047D01*
X78715380Y-72356571D01*
X78667761Y-72261333D01*
X78620142Y-72213714D01*
X78524904Y-72166095D01*
X78286809Y-72166095D01*
X78191571Y-72213714D01*
X78143952Y-72261333D01*
X78096333Y-72356571D01*
X78096333Y-72547047D01*
X78143952Y-72642285D01*
X78191571Y-72689904D01*
X78286809Y-72737523D01*
%TO.C,R17*%
X112688380Y-90558857D02*
X112212190Y-90892190D01*
X112688380Y-91130285D02*
X111688380Y-91130285D01*
X111688380Y-90749333D01*
X111736000Y-90654095D01*
X111783619Y-90606476D01*
X111878857Y-90558857D01*
X112021714Y-90558857D01*
X112116952Y-90606476D01*
X112164571Y-90654095D01*
X112212190Y-90749333D01*
X112212190Y-91130285D01*
X112688380Y-89606476D02*
X112688380Y-90177904D01*
X112688380Y-89892190D02*
X111688380Y-89892190D01*
X111831238Y-89987428D01*
X111926476Y-90082666D01*
X111974095Y-90177904D01*
X111688380Y-89273142D02*
X111688380Y-88606476D01*
X112688380Y-89035047D01*
%TO.C,R18*%
X104513142Y-85542380D02*
X104179809Y-85066190D01*
X103941714Y-85542380D02*
X103941714Y-84542380D01*
X104322666Y-84542380D01*
X104417904Y-84590000D01*
X104465523Y-84637619D01*
X104513142Y-84732857D01*
X104513142Y-84875714D01*
X104465523Y-84970952D01*
X104417904Y-85018571D01*
X104322666Y-85066190D01*
X103941714Y-85066190D01*
X105465523Y-85542380D02*
X104894095Y-85542380D01*
X105179809Y-85542380D02*
X105179809Y-84542380D01*
X105084571Y-84685238D01*
X104989333Y-84780476D01*
X104894095Y-84828095D01*
X106036952Y-84970952D02*
X105941714Y-84923333D01*
X105894095Y-84875714D01*
X105846476Y-84780476D01*
X105846476Y-84732857D01*
X105894095Y-84637619D01*
X105941714Y-84590000D01*
X106036952Y-84542380D01*
X106227428Y-84542380D01*
X106322666Y-84590000D01*
X106370285Y-84637619D01*
X106417904Y-84732857D01*
X106417904Y-84780476D01*
X106370285Y-84875714D01*
X106322666Y-84923333D01*
X106227428Y-84970952D01*
X106036952Y-84970952D01*
X105941714Y-85018571D01*
X105894095Y-85066190D01*
X105846476Y-85161428D01*
X105846476Y-85351904D01*
X105894095Y-85447142D01*
X105941714Y-85494761D01*
X106036952Y-85542380D01*
X106227428Y-85542380D01*
X106322666Y-85494761D01*
X106370285Y-85447142D01*
X106417904Y-85351904D01*
X106417904Y-85161428D01*
X106370285Y-85066190D01*
X106322666Y-85018571D01*
X106227428Y-84970952D01*
%TO.C,S1*%
X133604095Y-110640761D02*
X133746952Y-110688380D01*
X133985047Y-110688380D01*
X134080285Y-110640761D01*
X134127904Y-110593142D01*
X134175523Y-110497904D01*
X134175523Y-110402666D01*
X134127904Y-110307428D01*
X134080285Y-110259809D01*
X133985047Y-110212190D01*
X133794571Y-110164571D01*
X133699333Y-110116952D01*
X133651714Y-110069333D01*
X133604095Y-109974095D01*
X133604095Y-109878857D01*
X133651714Y-109783619D01*
X133699333Y-109736000D01*
X133794571Y-109688380D01*
X134032666Y-109688380D01*
X134175523Y-109736000D01*
X135127904Y-110688380D02*
X134556476Y-110688380D01*
X134842190Y-110688380D02*
X134842190Y-109688380D01*
X134746952Y-109831238D01*
X134651714Y-109926476D01*
X134556476Y-109974095D01*
%TO.C,U2*%
X89225095Y-85314380D02*
X89225095Y-86123904D01*
X89272714Y-86219142D01*
X89320333Y-86266761D01*
X89415571Y-86314380D01*
X89606047Y-86314380D01*
X89701285Y-86266761D01*
X89748904Y-86219142D01*
X89796523Y-86123904D01*
X89796523Y-85314380D01*
X90225095Y-85409619D02*
X90272714Y-85362000D01*
X90367952Y-85314380D01*
X90606047Y-85314380D01*
X90701285Y-85362000D01*
X90748904Y-85409619D01*
X90796523Y-85504857D01*
X90796523Y-85600095D01*
X90748904Y-85742952D01*
X90177476Y-86314380D01*
X90796523Y-86314380D01*
%TO.C,U3*%
X102870095Y-86320380D02*
X102870095Y-87129904D01*
X102917714Y-87225142D01*
X102965333Y-87272761D01*
X103060571Y-87320380D01*
X103251047Y-87320380D01*
X103346285Y-87272761D01*
X103393904Y-87225142D01*
X103441523Y-87129904D01*
X103441523Y-86320380D01*
X103822476Y-86320380D02*
X104441523Y-86320380D01*
X104108190Y-86701333D01*
X104251047Y-86701333D01*
X104346285Y-86748952D01*
X104393904Y-86796571D01*
X104441523Y-86891809D01*
X104441523Y-87129904D01*
X104393904Y-87225142D01*
X104346285Y-87272761D01*
X104251047Y-87320380D01*
X103965333Y-87320380D01*
X103870095Y-87272761D01*
X103822476Y-87225142D01*
%TO.C,U5*%
X65814095Y-84624380D02*
X65814095Y-85433904D01*
X65861714Y-85529142D01*
X65909333Y-85576761D01*
X66004571Y-85624380D01*
X66195047Y-85624380D01*
X66290285Y-85576761D01*
X66337904Y-85529142D01*
X66385523Y-85433904D01*
X66385523Y-84624380D01*
X67337904Y-84624380D02*
X66861714Y-84624380D01*
X66814095Y-85100571D01*
X66861714Y-85052952D01*
X66956952Y-85005333D01*
X67195047Y-85005333D01*
X67290285Y-85052952D01*
X67337904Y-85100571D01*
X67385523Y-85195809D01*
X67385523Y-85433904D01*
X67337904Y-85529142D01*
X67290285Y-85576761D01*
X67195047Y-85624380D01*
X66956952Y-85624380D01*
X66861714Y-85576761D01*
X66814095Y-85529142D01*
%TO.C,U6*%
X75756095Y-67482380D02*
X75756095Y-68291904D01*
X75803714Y-68387142D01*
X75851333Y-68434761D01*
X75946571Y-68482380D01*
X76137047Y-68482380D01*
X76232285Y-68434761D01*
X76279904Y-68387142D01*
X76327523Y-68291904D01*
X76327523Y-67482380D01*
X77232285Y-67482380D02*
X77041809Y-67482380D01*
X76946571Y-67530000D01*
X76898952Y-67577619D01*
X76803714Y-67720476D01*
X76756095Y-67910952D01*
X76756095Y-68291904D01*
X76803714Y-68387142D01*
X76851333Y-68434761D01*
X76946571Y-68482380D01*
X77137047Y-68482380D01*
X77232285Y-68434761D01*
X77279904Y-68387142D01*
X77327523Y-68291904D01*
X77327523Y-68053809D01*
X77279904Y-67958571D01*
X77232285Y-67910952D01*
X77137047Y-67863333D01*
X76946571Y-67863333D01*
X76851333Y-67910952D01*
X76803714Y-67958571D01*
X76756095Y-68053809D01*
%TO.C,J4*%
X51476666Y-67502380D02*
X51476666Y-68216666D01*
X51429047Y-68359523D01*
X51333809Y-68454761D01*
X51190952Y-68502380D01*
X51095714Y-68502380D01*
X52381428Y-67835714D02*
X52381428Y-68502380D01*
X52143333Y-67454761D02*
X51905238Y-68169047D01*
X52524285Y-68169047D01*
%TO.C,R12*%
X142867142Y-111450380D02*
X142533809Y-110974190D01*
X142295714Y-111450380D02*
X142295714Y-110450380D01*
X142676666Y-110450380D01*
X142771904Y-110498000D01*
X142819523Y-110545619D01*
X142867142Y-110640857D01*
X142867142Y-110783714D01*
X142819523Y-110878952D01*
X142771904Y-110926571D01*
X142676666Y-110974190D01*
X142295714Y-110974190D01*
X143819523Y-111450380D02*
X143248095Y-111450380D01*
X143533809Y-111450380D02*
X143533809Y-110450380D01*
X143438571Y-110593238D01*
X143343333Y-110688476D01*
X143248095Y-110736095D01*
X144200476Y-110545619D02*
X144248095Y-110498000D01*
X144343333Y-110450380D01*
X144581428Y-110450380D01*
X144676666Y-110498000D01*
X144724285Y-110545619D01*
X144771904Y-110640857D01*
X144771904Y-110736095D01*
X144724285Y-110878952D01*
X144152857Y-111450380D01*
X144771904Y-111450380D01*
%TO.C,U4*%
X79779095Y-84225380D02*
X79779095Y-85034904D01*
X79826714Y-85130142D01*
X79874333Y-85177761D01*
X79969571Y-85225380D01*
X80160047Y-85225380D01*
X80255285Y-85177761D01*
X80302904Y-85130142D01*
X80350523Y-85034904D01*
X80350523Y-84225380D01*
X81255285Y-84558714D02*
X81255285Y-85225380D01*
X81017190Y-84177761D02*
X80779095Y-84892047D01*
X81398142Y-84892047D01*
%TO.C,C13*%
X70985142Y-92559142D02*
X70937523Y-92606761D01*
X70794666Y-92654380D01*
X70699428Y-92654380D01*
X70556571Y-92606761D01*
X70461333Y-92511523D01*
X70413714Y-92416285D01*
X70366095Y-92225809D01*
X70366095Y-92082952D01*
X70413714Y-91892476D01*
X70461333Y-91797238D01*
X70556571Y-91702000D01*
X70699428Y-91654380D01*
X70794666Y-91654380D01*
X70937523Y-91702000D01*
X70985142Y-91749619D01*
X71937523Y-92654380D02*
X71366095Y-92654380D01*
X71651809Y-92654380D02*
X71651809Y-91654380D01*
X71556571Y-91797238D01*
X71461333Y-91892476D01*
X71366095Y-91940095D01*
X72270857Y-91654380D02*
X72889904Y-91654380D01*
X72556571Y-92035333D01*
X72699428Y-92035333D01*
X72794666Y-92082952D01*
X72842285Y-92130571D01*
X72889904Y-92225809D01*
X72889904Y-92463904D01*
X72842285Y-92559142D01*
X72794666Y-92606761D01*
X72699428Y-92654380D01*
X72413714Y-92654380D01*
X72318476Y-92606761D01*
X72270857Y-92559142D01*
%TO.C,J7*%
X121332666Y-66508380D02*
X121332666Y-67222666D01*
X121285047Y-67365523D01*
X121189809Y-67460761D01*
X121046952Y-67508380D01*
X120951714Y-67508380D01*
X121713619Y-66508380D02*
X122380285Y-66508380D01*
X121951714Y-67508380D01*
%TO.C,U1*%
X93218095Y-82256380D02*
X93218095Y-83065904D01*
X93265714Y-83161142D01*
X93313333Y-83208761D01*
X93408571Y-83256380D01*
X93599047Y-83256380D01*
X93694285Y-83208761D01*
X93741904Y-83161142D01*
X93789523Y-83065904D01*
X93789523Y-82256380D01*
X94789523Y-83256380D02*
X94218095Y-83256380D01*
X94503809Y-83256380D02*
X94503809Y-82256380D01*
X94408571Y-82399238D01*
X94313333Y-82494476D01*
X94218095Y-82542095D01*
%TO.C,LCD1*%
X63277714Y-93670380D02*
X62706285Y-93670380D01*
X62992000Y-93670380D02*
X62992000Y-92670380D01*
X62896761Y-92813238D01*
X62801523Y-92908476D01*
X62706285Y-92956095D01*
%TO.C,*%
%TO.C,REF\u002A\u002A*%
X123666666Y-55952380D02*
X123333333Y-55476190D01*
X123095238Y-55952380D02*
X123095238Y-54952380D01*
X123476190Y-54952380D01*
X123571428Y-55000000D01*
X123619047Y-55047619D01*
X123666666Y-55142857D01*
X123666666Y-55285714D01*
X123619047Y-55380952D01*
X123571428Y-55428571D01*
X123476190Y-55476190D01*
X123095238Y-55476190D01*
X124095238Y-55428571D02*
X124428571Y-55428571D01*
X124571428Y-55952380D02*
X124095238Y-55952380D01*
X124095238Y-54952380D01*
X124571428Y-54952380D01*
X125333333Y-55428571D02*
X125000000Y-55428571D01*
X125000000Y-55952380D02*
X125000000Y-54952380D01*
X125476190Y-54952380D01*
X126000000Y-54952380D02*
X126000000Y-55190476D01*
X125761904Y-55095238D02*
X126000000Y-55190476D01*
X126238095Y-55095238D01*
X125857142Y-55380952D02*
X126000000Y-55190476D01*
X126142857Y-55380952D01*
X126761904Y-54952380D02*
X126761904Y-55190476D01*
X126523809Y-55095238D02*
X126761904Y-55190476D01*
X127000000Y-55095238D01*
X126619047Y-55380952D02*
X126761904Y-55190476D01*
X126904761Y-55380952D01*
%TO.C,*%
D11*
%TO.C,C4*%
X92465420Y-91248000D02*
X92746580Y-91248000D01*
X92465420Y-92268000D02*
X92746580Y-92268000D01*
%TO.C,C5*%
X137554580Y-90930000D02*
X137273420Y-90930000D01*
X137554580Y-91950000D02*
X137273420Y-91950000D01*
%TO.C,C6*%
X105015420Y-92180000D02*
X105296580Y-92180000D01*
X105015420Y-93200000D02*
X105296580Y-93200000D01*
%TO.C,C7*%
X144666580Y-91950000D02*
X144385420Y-91950000D01*
X144666580Y-90930000D02*
X144385420Y-90930000D01*
%TO.C,C8*%
X98609420Y-91240000D02*
X98890580Y-91240000D01*
X98609420Y-92260000D02*
X98890580Y-92260000D01*
%TO.C,C9*%
X86396580Y-92268000D02*
X86115420Y-92268000D01*
X86396580Y-91248000D02*
X86115420Y-91248000D01*
%TO.C,C10*%
X81670420Y-91248000D02*
X81951580Y-91248000D01*
X81670420Y-92268000D02*
X81951580Y-92268000D01*
%TO.C,C11*%
X101964420Y-99089471D02*
X102245580Y-99089471D01*
X101964420Y-100109471D02*
X102245580Y-100109471D01*
%TO.C,C12*%
X65245580Y-98589471D02*
X64964420Y-98589471D01*
X65245580Y-99609471D02*
X64964420Y-99609471D01*
%TO.C,C14*%
X62448000Y-72089420D02*
X62448000Y-72370580D01*
X63468000Y-72089420D02*
X63468000Y-72370580D01*
%TO.C,C15*%
X65010420Y-92712000D02*
X65291580Y-92712000D01*
X65010420Y-91692000D02*
X65291580Y-91692000D01*
%TO.C,C16*%
X69658000Y-68488580D02*
X69658000Y-68207420D01*
X70678000Y-68488580D02*
X70678000Y-68207420D01*
%TO.C,C18*%
X81828000Y-72815580D02*
X81828000Y-72534420D01*
X82848000Y-72815580D02*
X82848000Y-72534420D01*
%TO.C,C19*%
X74858580Y-72550000D02*
X74577420Y-72550000D01*
X74858580Y-71530000D02*
X74577420Y-71530000D01*
%TO.C,C20*%
X76848000Y-78970580D02*
X76848000Y-78689420D01*
X77868000Y-78970580D02*
X77868000Y-78689420D01*
%TO.C,C21*%
X71233420Y-76202000D02*
X71514580Y-76202000D01*
X71233420Y-75182000D02*
X71514580Y-75182000D01*
%TO.C,D1*%
X128080000Y-72812000D02*
X128236000Y-72812000D01*
X125764000Y-72812000D02*
X125920000Y-72812000D01*
X125920163Y-70210870D02*
G75*
G03*
X125920000Y-72292961I1079837J-1041130D01*
G01*
X128080000Y-72292961D02*
G75*
G03*
X128079837Y-70210870I-1080000J1040961D01*
G01*
X125921392Y-69579665D02*
G75*
G03*
X125764484Y-72812000I1078609J-1672335D01*
G01*
X128235516Y-72812000D02*
G75*
G03*
X128078608Y-69579665I-1235517J1560000D01*
G01*
%TO.C,D2*%
X119919790Y-84337210D02*
X120075790Y-84337210D01*
X117603790Y-84337210D02*
X117759790Y-84337210D01*
X117761182Y-81104875D02*
G75*
G03*
X117604274Y-84337210I1078609J-1672335D01*
G01*
X117759953Y-81736080D02*
G75*
G03*
X117759790Y-83818171I1079837J-1041130D01*
G01*
X120075306Y-84337210D02*
G75*
G03*
X119918398Y-81104875I-1235517J1560000D01*
G01*
X119919790Y-83818171D02*
G75*
G03*
X119919627Y-81736080I-1080000J1040961D01*
G01*
%TO.C,D3*%
X66423000Y-66745000D02*
X66423000Y-69030000D01*
X67893000Y-69030000D02*
X67893000Y-66745000D01*
X67893000Y-66745000D02*
X66423000Y-66745000D01*
%TO.C,D4*%
X74098000Y-62230000D02*
X73078000Y-62230000D01*
X67638000Y-60760000D02*
X67638000Y-63700000D01*
X72058000Y-63700000D02*
X72058000Y-60760000D01*
X67638000Y-63700000D02*
X73078000Y-63700000D01*
X73078000Y-63700000D02*
X73078000Y-60760000D01*
X73078000Y-60760000D02*
X67638000Y-60760000D01*
X72178000Y-63700000D02*
X72178000Y-60760000D01*
X72298000Y-63700000D02*
X72298000Y-60760000D01*
X66618000Y-62230000D02*
X67638000Y-62230000D01*
%TO.C,D5*%
X72454000Y-84618000D02*
X72610000Y-84618000D01*
X70138000Y-84618000D02*
X70294000Y-84618000D01*
X72454000Y-84098961D02*
G75*
G03*
X72453837Y-82016870I-1080000J1040961D01*
G01*
X70294163Y-82016870D02*
G75*
G03*
X70294000Y-84098961I1079837J-1041130D01*
G01*
X72609516Y-84618000D02*
G75*
G03*
X72452608Y-81385665I-1235517J1560000D01*
G01*
X70295392Y-81385665D02*
G75*
G03*
X70138484Y-84618000I1078609J-1672335D01*
G01*
%TO.C,D6*%
X78198000Y-82821000D02*
X78042000Y-82821000D01*
X75882000Y-82821000D02*
X75726000Y-82821000D01*
X78040608Y-86053335D02*
G75*
G03*
X78197516Y-82821000I-1078609J1672335D01*
G01*
X75882000Y-83340039D02*
G75*
G03*
X75882163Y-85422130I1080000J-1040961D01*
G01*
X75726484Y-82821000D02*
G75*
G03*
X75883392Y-86053335I1235517J-1560000D01*
G01*
X78041837Y-85422130D02*
G75*
G03*
X78042000Y-83340039I-1079837J1041130D01*
G01*
%TO.C,D7*%
X66038000Y-74110000D02*
X66038000Y-78350000D01*
X68278000Y-74950000D02*
X66038000Y-74950000D01*
X68278000Y-74710000D02*
X66038000Y-74710000D01*
X67158000Y-79000000D02*
X67158000Y-78350000D01*
X66038000Y-78350000D02*
X68278000Y-78350000D01*
X68278000Y-74830000D02*
X66038000Y-74830000D01*
X68278000Y-78350000D02*
X68278000Y-74110000D01*
X67158000Y-73460000D02*
X67158000Y-74110000D01*
X68278000Y-74110000D02*
X66038000Y-74110000D01*
%TO.C,F1*%
X64048000Y-68392779D02*
X64048000Y-68067221D01*
X65068000Y-68392779D02*
X65068000Y-68067221D01*
%TO.C,J1*%
X92770000Y-81605000D02*
X90110000Y-81605000D01*
X92770000Y-82875000D02*
X92770000Y-84205000D01*
X90110000Y-81605000D02*
X90110000Y-63765000D01*
X92770000Y-84205000D02*
X91440000Y-84205000D01*
X92770000Y-81605000D02*
X92770000Y-63765000D01*
X92770000Y-63765000D02*
X90110000Y-63765000D01*
D12*
%TO.C,J2*%
X123192000Y-86131000D02*
X123192000Y-85631000D01*
X123192000Y-86131000D02*
X123692000Y-86131000D01*
X129792000Y-86131000D02*
X129292000Y-86131000D01*
X129792000Y-86131000D02*
X129792000Y-85631000D01*
%TO.C,J3*%
X83752000Y-70268000D02*
X83752000Y-70768000D01*
X83752000Y-70268000D02*
X84252000Y-70268000D01*
X89152000Y-83168000D02*
X88652000Y-83168000D01*
X89152000Y-70268000D02*
X88652000Y-70268000D01*
X83752000Y-83168000D02*
X84252000Y-83168000D01*
X89152000Y-83168000D02*
X89152000Y-82668000D01*
X83752000Y-83168000D02*
X83752000Y-82668000D01*
X89152000Y-70268000D02*
X89152000Y-70768000D01*
%TO.C,J5*%
X58580000Y-76740000D02*
X58580000Y-77240000D01*
X58580000Y-80740000D02*
X58080000Y-80740000D01*
X58580000Y-80740000D02*
X58580000Y-80240000D01*
X53180000Y-80740000D02*
X53680000Y-80740000D01*
X53180000Y-76740000D02*
X53180000Y-77240000D01*
X53180000Y-76740000D02*
X53680000Y-76740000D01*
X53180000Y-80740000D02*
X53180000Y-80240000D01*
X58580000Y-76740000D02*
X58080000Y-76740000D01*
%TO.C,J6*%
X53180000Y-81820000D02*
X53680000Y-81820000D01*
X58580000Y-85820000D02*
X58080000Y-85820000D01*
X58580000Y-81820000D02*
X58080000Y-81820000D01*
X53180000Y-85820000D02*
X53680000Y-85820000D01*
X53180000Y-85820000D02*
X53180000Y-85320000D01*
X58580000Y-85820000D02*
X58580000Y-85320000D01*
X58580000Y-81820000D02*
X58580000Y-82320000D01*
X53180000Y-81820000D02*
X53180000Y-82320000D01*
D11*
%TO.C,L1*%
X77625221Y-75458000D02*
X77950779Y-75458000D01*
X77625221Y-76478000D02*
X77950779Y-76478000D01*
%TO.C,L2*%
X79500000Y-78577221D02*
X79500000Y-78902779D01*
X80520000Y-78577221D02*
X80520000Y-78902779D01*
%TO.C,L3*%
X71395221Y-74340000D02*
X71720779Y-74340000D01*
X71395221Y-73320000D02*
X71720779Y-73320000D01*
D12*
%TO.C,POT1*%
X135361000Y-129383000D02*
X135361000Y-128733000D01*
X135361000Y-113708000D02*
X135361000Y-112933000D01*
X148186000Y-112933000D02*
X146886000Y-112933000D01*
X148611000Y-129383000D02*
X148611000Y-128483000D01*
X135361000Y-112933000D02*
X136111000Y-112933000D01*
X148611000Y-113383000D02*
X148186000Y-112933000D01*
X148611000Y-114158000D02*
X148611000Y-113383000D01*
X136211000Y-129383000D02*
X135361000Y-129383000D01*
X147536000Y-129383000D02*
X148611000Y-129383000D01*
D11*
%TO.C,R1*%
X108695258Y-93232500D02*
X108220742Y-93232500D01*
X108695258Y-92187500D02*
X108220742Y-92187500D01*
%TO.C,R2*%
X102122500Y-89582258D02*
X102122500Y-89107742D01*
X101077500Y-89582258D02*
X101077500Y-89107742D01*
%TO.C,R3*%
X126508742Y-67295500D02*
X126983258Y-67295500D01*
X126508742Y-68340500D02*
X126983258Y-68340500D01*
%TO.C,R4*%
X118380742Y-79770500D02*
X118855258Y-79770500D01*
X118380742Y-78725500D02*
X118855258Y-78725500D01*
%TO.C,R9*%
X141207258Y-90917500D02*
X140732742Y-90917500D01*
X141207258Y-91962500D02*
X140732742Y-91962500D01*
%TO.C,R10*%
X142985258Y-88885500D02*
X142510742Y-88885500D01*
X142985258Y-89930500D02*
X142510742Y-89930500D01*
%TO.C,R11*%
X111237500Y-86597258D02*
X111237500Y-86122742D01*
X112282500Y-86597258D02*
X112282500Y-86122742D01*
%TO.C,R13*%
X71611258Y-78749500D02*
X71136742Y-78749500D01*
X71611258Y-77704500D02*
X71136742Y-77704500D01*
%TO.C,R14*%
X76439500Y-89703258D02*
X76439500Y-89228742D01*
X77484500Y-89703258D02*
X77484500Y-89228742D01*
%TO.C,R15*%
X82225500Y-66722742D02*
X82225500Y-67197258D01*
X81180500Y-66722742D02*
X81180500Y-67197258D01*
%TO.C,R16*%
X79170500Y-73665258D02*
X79170500Y-73190742D01*
X80215500Y-73665258D02*
X80215500Y-73190742D01*
%TO.C,R17*%
X109713500Y-90153258D02*
X109713500Y-89678742D01*
X110758500Y-90153258D02*
X110758500Y-89678742D01*
%TO.C,R18*%
X106663258Y-86091500D02*
X106188742Y-86091500D01*
X106663258Y-87136500D02*
X106188742Y-87136500D01*
D12*
%TO.C,S1*%
X136481000Y-107492471D02*
X135531000Y-107492471D01*
X148281000Y-93842471D02*
X148281000Y-94342471D01*
X147581000Y-93842471D02*
X148281000Y-93842471D01*
X148281000Y-106917471D02*
X148281000Y-107492471D01*
X136381000Y-93842471D02*
X135531000Y-93842471D01*
X135531000Y-93842471D02*
X135531000Y-94517471D01*
X135531000Y-107492471D02*
X135531000Y-106817471D01*
X148281000Y-107492471D02*
X147481000Y-107492471D01*
%TO.C,U2*%
X97392000Y-90313000D02*
X98342000Y-90313000D01*
X92767000Y-90738000D02*
X93142000Y-90738000D01*
X96592000Y-90738000D02*
X96967000Y-90738000D01*
X97367000Y-85538000D02*
X96917000Y-85538000D01*
X92767000Y-90738000D02*
X92767000Y-90313000D01*
X92767000Y-85538000D02*
X92767000Y-85938000D01*
X92767000Y-85538000D02*
X93217000Y-85538000D01*
X96967000Y-90738000D02*
X97392000Y-90313000D01*
X97367000Y-85538000D02*
X97367000Y-85913000D01*
D11*
%TO.C,U3*%
X108615000Y-90686000D02*
X107815000Y-91486000D01*
X108615000Y-87486000D02*
X108615000Y-90686000D01*
X102615000Y-91486000D02*
X102615000Y-87486000D01*
X102615000Y-87486000D02*
X108615000Y-87486000D01*
X107815000Y-91486000D02*
X102615000Y-91486000D01*
D12*
%TO.C,U5*%
X71596000Y-85992000D02*
X71596000Y-86392000D01*
X71596000Y-90792000D02*
X71596000Y-90392000D01*
X61396000Y-85992000D02*
X61396000Y-86392000D01*
X61396000Y-85992000D02*
X61796000Y-85992000D01*
X61396000Y-90792000D02*
X61796000Y-90792000D01*
X61396000Y-90792000D02*
X61396000Y-86392000D01*
X71196000Y-85992000D02*
X71596000Y-85992000D01*
X61396000Y-87102000D02*
X71496000Y-87102000D01*
X71596000Y-90792000D02*
X71196000Y-90792000D01*
D11*
%TO.C,U6*%
X74397100Y-70658900D02*
X78638900Y-70658900D01*
X78638900Y-65401100D02*
X74397100Y-65401100D01*
%TO.C,J4*%
X46783000Y-74472800D02*
X55577419Y-74472800D01*
X61540400Y-65227200D02*
X46783000Y-65227200D01*
X61540400Y-68040280D02*
X61540400Y-65227200D01*
X59742584Y-74472800D02*
X61540400Y-74472800D01*
X61540400Y-74472800D02*
X61540400Y-71659720D01*
X46783000Y-65227200D02*
X46783000Y-74472800D01*
%TO.C,R12*%
X146320742Y-111266500D02*
X146795258Y-111266500D01*
X146320742Y-110221500D02*
X146795258Y-110221500D01*
D12*
%TO.C,U4*%
X81266000Y-90738000D02*
X81266000Y-90313000D01*
X81266000Y-90738000D02*
X81641000Y-90738000D01*
X85091000Y-90738000D02*
X85466000Y-90738000D01*
X81266000Y-85538000D02*
X81266000Y-85938000D01*
X85891000Y-90313000D02*
X86841000Y-90313000D01*
X81266000Y-85538000D02*
X81716000Y-85538000D01*
X85466000Y-90738000D02*
X85891000Y-90313000D01*
X85866000Y-85538000D02*
X85866000Y-85913000D01*
X85866000Y-85538000D02*
X85416000Y-85538000D01*
D11*
%TO.C,C13*%
X68466580Y-92712000D02*
X68185420Y-92712000D01*
X68466580Y-91692000D02*
X68185420Y-91692000D01*
D12*
%TO.C,J7*%
X115858000Y-67811000D02*
X116358000Y-67811000D01*
X122458000Y-67811000D02*
X121958000Y-67811000D01*
X115858000Y-67811000D02*
X115858000Y-68311000D01*
X122458000Y-67811000D02*
X122458000Y-68311000D01*
D11*
%TO.C,U1*%
X95576000Y-81944000D02*
X95576000Y-82724000D01*
X95576000Y-63399000D02*
X95196000Y-63399000D01*
X95576000Y-56979000D02*
X113816000Y-56979000D01*
X95576000Y-56979000D02*
X95576000Y-63399000D01*
X95576000Y-82724000D02*
X96576000Y-82724000D01*
X113816000Y-82724000D02*
X112816000Y-82724000D01*
X113816000Y-81944000D02*
X113816000Y-82724000D01*
X113816000Y-56979000D02*
X113816000Y-63399000D01*
%TD*%
M02*
